<?xml version="1.0" encoding="UTF-8" standalone="no"?>
<!-- Created with Inkscape (http://www.inkscape.org/) -->

<svg
   xmlns:dc="http://purl.org/dc/elements/1.1/"
   xmlns:cc="http://creativecommons.org/ns#"
   xmlns:rdf="http://www.w3.org/1999/02/22-rdf-syntax-ns#"
   xmlns:svg="http://www.w3.org/2000/svg"
   xmlns="http://www.w3.org/2000/svg"
   xmlns:xlink="http://www.w3.org/1999/xlink"
   xmlns:sodipodi="http://sodipodi.sourceforge.net/DTD/sodipodi-0.dtd"
   xmlns:inkscape="http://www.inkscape.org/namespaces/inkscape"
   width="744.09448819"
   height="1052.3622047"
   id="svg9807"
   version="1.1"
   inkscape:version="0.48.5 r10040"
   sodipodi:docname="Kumablon_fb.svg"
   inkscape:export-filename="C:\Users\vdboer\Dropbox\Voices\Presentation material\Mouriba logos\Kumablon_fb.png"
   inkscape:export-xdpi="90"
   inkscape:export-ydpi="90">
  <defs
     id="defs9809" />
  <sodipodi:namedview
     id="base"
     pagecolor="#ffffff"
     bordercolor="#666666"
     borderopacity="1.0"
     inkscape:pageopacity="0.0"
     inkscape:pageshadow="2"
     inkscape:zoom="0.98994949"
     inkscape:cx="187.24369"
     inkscape:cy="502.71672"
     inkscape:document-units="px"
     inkscape:current-layer="layer1"
     showgrid="false"
     inkscape:window-width="1468"
     inkscape:window-height="802"
     inkscape:window-x="22"
     inkscape:window-y="35"
     inkscape:window-maximized="0" />
  <metadata
     id="metadata9812">
    <rdf:RDF>
      <cc:Work
         rdf:about="">
        <dc:format>image/svg+xml</dc:format>
        <dc:type
           rdf:resource="http://purl.org/dc/dcmitype/StillImage" />
        <dc:title></dc:title>
      </cc:Work>
    </rdf:RDF>
  </metadata>
  <g
     inkscape:label="Layer 1"
     inkscape:groupmode="layer"
     id="layer1">
    <g
       transform="matrix(1.25,0,0,-1.25,526.42257,572.36215)"
       id="g3023"
       style="fill:#ecfc7b;fill-opacity:1">
      <path
         id="path3025"
         style="fill:#ecfc7b;fill-opacity:1;fill-rule:nonzero;stroke:none"
         d="m 0,0 c 0,-67.218 -54.491,-121.71 -121.709,-121.71 -67.219,0 -121.71,54.492 -121.71,121.71 0,67.219 54.491,121.71 121.71,121.71 C -54.491,121.71 0,67.219 0,0"
         inkscape:connector-curvature="0" />
    </g>
    <g
       transform="matrix(-1.2471054,-0.08501911,0.08501911,-1.2471054,428.43684,544.8887)"
       id="g3099">
      <path
         id="path3101"
         style="fill:#2e2d2d;fill-opacity:1;fill-rule:nonzero;stroke:none"
         d="m 0,0 c 0,-12.386 0.458,-13.834 -5.914,-12.965 -2.283,0.312 -4.174,3.769 -4.174,8.418 0,4.649 1.869,8.418 4.174,8.418 C -3.608,3.871 0,4.648 0,0"
         inkscape:connector-curvature="0" />
    </g>
    <g
       transform="matrix(-1.2471054,-0.08501911,0.08501911,-1.2471054,428.43684,544.8887)"
       id="g3103">
      <path
         id="path3105"
         style="fill:none;stroke:#231f20;stroke-width:2;stroke-linecap:butt;stroke-linejoin:miter;stroke-miterlimit:4;stroke-opacity:1;stroke-dasharray:none"
         d="m 0,0 c 0,-12.386 0.458,-13.834 -5.914,-12.965 -2.283,0.312 -4.174,3.769 -4.174,8.418 0,4.649 1.869,8.418 4.174,8.418 C -3.608,3.871 0,4.648 0,0 z"
         inkscape:connector-curvature="0" />
    </g>
    <g
       transform="matrix(-1.2471054,-0.08501911,0.08501911,-1.2471054,425.68658,550.61821)"
       id="g3107">
      <path
         id="path3109"
         style="fill:#2e2d2d;fill-opacity:1;fill-rule:nonzero;stroke:none"
         d="m 0,0 c 0,-4.649 -1.869,-8.419 -4.173,-8.419 -2.306,0 -4.174,3.77 -4.174,8.419 0,4.648 1.868,8.418 4.174,8.418 C -1.869,8.418 0,4.648 0,0"
         inkscape:connector-curvature="0" />
    </g>
    <g
       transform="matrix(-1.2471054,-0.08501911,0.08501911,-1.2471054,425.68658,550.61821)"
       id="g3111">
      <path
         id="path3113"
         style="fill:none;stroke:#231f20;stroke-width:2;stroke-linecap:butt;stroke-linejoin:miter;stroke-miterlimit:4;stroke-opacity:1;stroke-dasharray:none"
         d="m 0,0 c 0,-4.649 -1.869,-8.419 -4.173,-8.419 -2.306,0 -4.174,3.77 -4.174,8.419 0,4.648 1.868,8.418 4.174,8.418 C -1.869,8.418 0,4.648 0,0 z"
         inkscape:connector-curvature="0" />
    </g>
    <g
       transform="matrix(-1.2471054,-0.08501911,0.08501911,-1.2471054,417.76057,538.18813)"
       id="g3115">
      <path
         id="path3117"
         style="fill:#2e2d2d;fill-opacity:1;fill-rule:nonzero;stroke:none"
         d="m 0,0 c 0,-24.035 0.743,-26.844 -9.579,-25.157 -3.698,0.604 -6.76,7.313 -6.76,16.336 0,9.022 3.026,16.335 6.76,16.335 C -5.845,7.514 0,9.022 0,0"
         inkscape:connector-curvature="0" />
    </g>
    <g
       transform="matrix(-1.2471054,-0.08501911,0.08501911,-1.2471054,417.76057,538.18813)"
       id="g3119">
      <path
         id="path3121"
         style="fill:none;stroke:#231f20;stroke-width:2;stroke-linecap:butt;stroke-linejoin:miter;stroke-miterlimit:4;stroke-opacity:1;stroke-dasharray:none"
         d="m 0,0 c 0,-24.035 0.743,-26.844 -9.579,-25.157 -3.698,0.604 -6.76,7.313 -6.76,16.336 0,9.022 3.026,16.335 6.76,16.335 C -5.845,7.514 0,9.022 0,0 z"
         inkscape:connector-curvature="0" />
    </g>
    <g
       transform="matrix(-1.2471054,-0.08501911,0.08501911,-1.2471054,413.17635,549.3561)"
       id="g3123">
      <path
         id="path3125"
         style="fill:#2e2d2d;fill-opacity:1;fill-rule:nonzero;stroke:none"
         d="m 0,0 c 0,-9.021 -3.027,-16.335 -6.76,-16.335 -3.734,0 -6.761,7.314 -6.761,16.335 0,9.022 3.027,16.336 6.761,16.336 C -3.027,16.336 0,9.022 0,0"
         inkscape:connector-curvature="0" />
    </g>
    <g
       transform="matrix(-1.2471054,-0.08501911,0.08501911,-1.2471054,413.17635,549.3561)"
       id="g3127">
      <path
         id="path3129"
         style="fill:none;stroke:#231f20;stroke-width:2;stroke-linecap:butt;stroke-linejoin:miter;stroke-miterlimit:4;stroke-opacity:1;stroke-dasharray:none"
         d="m 0,0 c 0,-9.021 -3.027,-16.335 -6.76,-16.335 -3.734,0 -6.761,7.314 -6.761,16.335 0,9.022 3.027,16.336 6.761,16.336 C -3.027,16.336 0,9.022 0,0 z"
         inkscape:connector-curvature="0" />
    </g>
    <g
       transform="matrix(-1.2471054,-0.08501911,0.08501911,-1.2471054,434.97169,622.2433)"
       id="g3131">
      <path
         id="path3133"
         style="fill:none;stroke:#231f20;stroke-width:2;stroke-linecap:butt;stroke-linejoin:miter;stroke-miterlimit:4;stroke-opacity:1;stroke-dasharray:none"
         d="M 0,0 C 5.622,-15.698 19.047,-25.226 30.016,-21.298"
         inkscape:connector-curvature="0" />
    </g>
    <g
       transform="matrix(-1.2471054,-0.08501911,0.08501911,-1.2471054,309.26509,539.69848)"
       id="g3135">
      <path
         id="path3137"
         style="fill:none;stroke:#231f20;stroke-width:2;stroke-linecap:butt;stroke-linejoin:miter;stroke-miterlimit:4;stroke-opacity:1;stroke-dasharray:none"
         d="M 0,0 C 3.525,-43.885 -29.691,-82.295 -74.271,-85.877"
         inkscape:connector-curvature="0" />
    </g>
    <g
       transform="matrix(-1.2471054,-0.08501911,0.08501911,-1.2471054,436.81748,622.64437)"
       id="g3139">
      <path
         id="path3141"
         style="fill:#2e2d2d;fill-opacity:1;fill-rule:nonzero;stroke:none"
         d="m 0,0 -25.707,35.916 4.496,2.469 L 2.782,1.507 0,0 z"
         inkscape:connector-curvature="0" />
    </g>
    <g
       transform="matrix(-1.2471054,-0.08501911,0.08501911,-1.2471054,436.81748,622.64437)"
       id="g3143">
      <path
         id="path3145"
         style="fill:none;stroke:#231f20;stroke-width:1;stroke-linecap:butt;stroke-linejoin:miter;stroke-miterlimit:4;stroke-opacity:1;stroke-dasharray:none"
         d="m 0,0 -25.707,35.916 4.496,2.469 L 2.782,1.507 0,0 z"
         inkscape:connector-curvature="0" />
    </g>
    <g
       transform="matrix(-1.2471054,-0.08501911,0.08501911,-1.2471054,417.07285,636.06642)"
       id="g3147">
      <path
         id="path3149"
         style="fill:#5a5758;fill-opacity:1;fill-rule:nonzero;stroke:none"
         d="m 0,0 c -4.772,11.609 -3.635,19.703 -1.298,50.988 3.64,48.701 10.945,48.587 10.945,48.587 12.64,3.934 55.552,11.138 66.332,-4.304 10.778,-15.444 -4.615,-97.534 -4.467,-99.513 0.149,-1.979 -7.666,-17.16 -14.115,-19.635 -5.632,-2.162 -34.912,-0.024 -46.68,6.915 0,0 -6.245,6.083 -10.717,16.962"
         inkscape:connector-curvature="0" />
    </g>
    <g
       transform="matrix(-1.2471054,-0.08501911,0.08501911,-1.2471054,417.07285,636.06642)"
       id="g3151">
      <path
         id="path3153"
         style="fill:none;stroke:#231f20;stroke-width:2;stroke-linecap:butt;stroke-linejoin:miter;stroke-miterlimit:4;stroke-opacity:1;stroke-dasharray:none"
         d="m 0,0 c -4.772,11.609 -3.635,19.703 -1.298,50.988 3.64,48.701 10.945,48.587 10.945,48.587 12.64,3.934 55.552,11.138 66.332,-4.304 10.778,-15.444 -4.615,-97.534 -4.467,-99.513 0.149,-1.979 -7.666,-17.16 -14.115,-19.635 -5.632,-2.162 -34.912,-0.024 -46.68,6.915 0,0 -6.245,6.083 -10.717,16.962 z"
         inkscape:connector-curvature="0" />
    </g>
    <g
       transform="matrix(-1.2471054,-0.08501911,0.08501911,-1.2471054,370.92046,652.95546)"
       id="g3155">
      <path
         id="path3157"
         style="fill:none;stroke:#231f20;stroke-width:1;stroke-linecap:butt;stroke-linejoin:miter;stroke-miterlimit:4;stroke-opacity:1;stroke-dasharray:none"
         d="M 0,0 C -1.121,-1.803 -1.118,-4.353 -0.351,-5.653"
         inkscape:connector-curvature="0" />
    </g>
    <g
       transform="matrix(-1.2471054,-0.08501911,0.08501911,-1.2471054,349.47209,682.74602)"
       id="g3159">
      <path
         id="path3161"
         style="fill:none;stroke:#231f20;stroke-width:2;stroke-linecap:butt;stroke-linejoin:miter;stroke-miterlimit:4;stroke-opacity:1;stroke-dasharray:none"
         d="M 0,0 C 2.034,-0.468 3.823,-3.314 4.256,-5.031"
         inkscape:connector-curvature="0" />
    </g>
    <g
       transform="matrix(-1.2471054,-0.08501911,0.08501911,-1.2471054,382.11952,663.14987)"
       id="g3163">
      <path
         id="path3165"
         style="fill:#abaaaa;fill-opacity:1;fill-rule:nonzero;stroke:none"
         d="M 0,0 C 0,0 -10.042,-3.243 -6.734,-21.282 L -9.442,-8.701 C -9.354,7.86 -3.965,3.312 -3.965,3.312 L 0,0 z"
         inkscape:connector-curvature="0" />
    </g>
    <g
       transform="matrix(-1.2471054,-0.08501911,0.08501911,-1.2471054,382.11952,663.14987)"
       id="g3167">
      <path
         id="path3169"
         style="fill:none;stroke:#231f20;stroke-width:2;stroke-linecap:butt;stroke-linejoin:miter;stroke-miterlimit:4;stroke-opacity:1;stroke-dasharray:none"
         d="M 0,0 C 0,0 -10.042,-3.243 -6.734,-21.282 L -9.442,-8.701 C -9.354,7.86 -3.965,3.312 -3.965,3.312 L 0,0 z"
         inkscape:connector-curvature="0" />
    </g>
    <g
       transform="matrix(-1.2471054,-0.08501911,0.08501911,-1.2471054,350.54358,678.21742)"
       id="g3171">
      <path
         id="path3173"
         style="fill:#fff205;fill-opacity:1;fill-rule:nonzero;stroke:#231f20;stroke-width:2;stroke-linecap:butt;stroke-linejoin:miter;stroke-miterlimit:4;stroke-opacity:1;stroke-dasharray:none"
         d="m 0,0 1.061,0.252 c 0,0 11.024,6.365 16.954,4.438 10.319,-3.353 7.686,-10.525 7.686,-10.525 0.736,-1.789 -4.627,-7.793 -4.627,-7.793 0,0 -2.414,-2.322 -10.51,-0.773 -10.39,1.986 -18.948,4.562 -19.905,6.889 -0.957,2.327 -4.684,6.861 -2.256,9.115 2.43,2.253 2.447,4.248 4.661,3.171 2.214,-1.078 3.957,-2.075 3.957,-2.075"
         inkscape:connector-curvature="0" />
    </g>
    <g
       transform="matrix(-1.2471054,-0.08501911,0.08501911,-1.2471054,410.56825,524.29347)"
       id="g3175">
      <path
         id="path3177"
         style="fill:#b6d1c6;fill-opacity:1;fill-rule:nonzero;stroke:none"
         d="M 0,0 C 0,0 -6.805,-46.305 -2.56,-53.748 1.687,-61.191 45.372,-64.119 51.685,-60.346 58,-56.572 62.702,-8.097 59.377,-0.002 56.053,8.091 1.479,7.597 0,0"
         inkscape:connector-curvature="0" />
    </g>
    <g
       transform="matrix(-1.2471054,-0.08501911,0.08501911,-1.2471054,410.56825,524.29347)"
       id="g3179">
      <path
         id="path3181"
         style="fill:none;stroke:#231f20;stroke-width:1;stroke-linecap:butt;stroke-linejoin:miter;stroke-miterlimit:4;stroke-opacity:1;stroke-dasharray:none"
         d="M 0,0 C 0,0 -6.805,-46.305 -2.56,-53.748 1.687,-61.191 45.372,-64.119 51.685,-60.346 58,-56.572 62.702,-8.097 59.377,-0.002 56.053,8.091 1.479,7.597 0,0 z"
         inkscape:connector-curvature="0" />
    </g>
    <g
       transform="matrix(-1.2471054,-0.08501911,0.08501911,-1.2471054,373.97966,535.71684)"
       id="g3183">
      <path
         id="path3185"
         style="fill:#ffffff;fill-opacity:1;fill-rule:nonzero;stroke:#231f20;stroke-width:1;stroke-linecap:butt;stroke-linejoin:miter;stroke-miterlimit:4;stroke-opacity:1;stroke-dasharray:none"
         d="m 0,0 c 0.629,2.228 1.544,4.226 2.706,5.582 2.089,2.437 5.917,3.043 9.082,3.282 3.603,0.27 7.385,-0.799 9.961,-3.475 2.575,-2.677 3.067,-7.981 3.394,-12.335 0.318,-4.246 -0.78,-8.203 -2.824,-11.207 -2.15,-3.16 -5.427,-4.18 -9.12,-4.457 -3.408,-0.256 -6.548,0.004 -9.066,2.414 -2.032,1.947 -3.607,4.588 -4.451,7.64"
         inkscape:connector-curvature="0" />
    </g>
    <g
       transform="matrix(-1.2471054,-0.08501911,0.08501911,-1.2471054,372.96777,550.77439)"
       id="g3187">
      <path
         id="path3189"
         style="fill:#ffffff;fill-opacity:1;fill-rule:nonzero;stroke:#231f20;stroke-width:1;stroke-linecap:butt;stroke-linejoin:miter;stroke-miterlimit:4;stroke-opacity:1;stroke-dasharray:none"
         d="m 0,0 c -0.493,-1.646 -1.213,-3.164 -2.118,-4.494 -2.15,-3.16 -5.427,-4.18 -9.12,-4.457 -3.408,-0.256 -6.548,0.004 -9.066,2.415 -2.807,2.686 -4.74,6.698 -5.085,11.289 -0.367,4.883 0.992,11.378 3.658,14.488 2.089,2.437 5.917,3.044 9.082,3.281 3.603,0.271 7.386,-0.798 9.961,-3.474 1.548,-1.609 2.343,-4.168 2.801,-6.897"
         inkscape:connector-curvature="0" />
    </g>
    <g
       transform="matrix(-1.2471054,-0.08501911,0.08501911,-1.2471054,392.78609,536.67589)"
       id="g3191">
      <path
         id="path3193"
         style="fill:#231f20;fill-opacity:1;fill-rule:nonzero;stroke:none"
         d="m 0,0 c 1.077,-1.419 1.324,-4.195 1.495,-6.473 0.167,-2.22 -0.249,-4.278 -1.06,-5.831 -0.853,-1.633 -2.187,-2.136 -3.696,-2.251 -1.391,-0.104 -2.679,0.058 -3.731,1.339 -1.172,1.429 -1.997,3.541 -2.178,5.942 -0.191,2.554 0.309,5.936 1.373,7.538 0.836,1.255 2.397,1.54 3.69,1.637 C -2.634,2.012 -1.077,1.421 0,0"
         inkscape:connector-curvature="0" />
    </g>
    <g
       transform="matrix(-1.2471054,-0.08501911,0.08501911,-1.2471054,392.78609,536.67589)"
       id="g3195">
      <path
         id="path3197"
         style="fill:none;stroke:#231f20;stroke-width:1;stroke-linecap:butt;stroke-linejoin:miter;stroke-miterlimit:4;stroke-opacity:1;stroke-dasharray:none"
         d="m 0,0 c 1.077,-1.419 1.324,-4.195 1.495,-6.473 0.167,-2.22 -0.249,-4.278 -1.06,-5.831 -0.853,-1.633 -2.187,-2.136 -3.696,-2.251 -1.391,-0.104 -2.679,0.058 -3.731,1.339 -1.172,1.429 -1.997,3.541 -2.178,5.942 -0.191,2.554 0.309,5.936 1.373,7.538 0.836,1.255 2.397,1.54 3.69,1.637 C -2.634,2.012 -1.077,1.421 0,0 z"
         inkscape:connector-curvature="0" />
    </g>
    <g
       transform="matrix(-1.2471054,-0.08501911,0.08501911,-1.2471054,360.89796,534.70684)"
       id="g3199">
      <path
         id="path3201"
         style="fill:#231f20;fill-opacity:1;fill-rule:nonzero;stroke:none"
         d="m 0,0 c 1.054,-1.438 1.254,-4.217 1.387,-6.498 0.129,-2.222 -0.321,-4.273 -1.158,-5.812 -0.879,-1.618 -2.221,-2.1 -3.732,-2.188 -1.394,-0.082 -2.678,0.102 -3.708,1.401 -1.149,1.448 -1.938,3.573 -2.079,5.977 -0.149,2.557 0.408,5.931 1.499,7.513 0.855,1.241 2.421,1.501 3.717,1.576 C -2.601,2.055 -1.052,1.439 0,0"
         inkscape:connector-curvature="0" />
    </g>
    <g
       transform="matrix(-1.2471054,-0.08501911,0.08501911,-1.2471054,360.89796,534.70684)"
       id="g3203">
      <path
         id="path3205"
         style="fill:none;stroke:#231f20;stroke-width:1;stroke-linecap:butt;stroke-linejoin:miter;stroke-miterlimit:4;stroke-opacity:1;stroke-dasharray:none"
         d="m 0,0 c 1.054,-1.438 1.254,-4.217 1.387,-6.498 0.129,-2.222 -0.321,-4.273 -1.158,-5.812 -0.879,-1.618 -2.221,-2.1 -3.732,-2.188 -1.394,-0.082 -2.678,0.102 -3.708,1.401 -1.149,1.448 -1.938,3.573 -2.079,5.977 -0.149,2.557 0.408,5.931 1.499,7.513 0.855,1.241 2.421,1.501 3.717,1.576 C -2.601,2.055 -1.052,1.439 0,0 z"
         inkscape:connector-curvature="0" />
    </g>
    <g
       transform="matrix(-1.2471054,-0.08501911,0.08501911,-1.2471054,404.05095,569.54077)"
       id="g3207"
       style="stroke:#000000;stroke-opacity:1;stroke-width:1.67999993;stroke-miterlimit:4;stroke-dasharray:none">
      <path
         id="path3209"
         style="fill:none;stroke:#000000;stroke-width:1.67999993;stroke-linecap:butt;stroke-linejoin:miter;stroke-miterlimit:4;stroke-opacity:1;stroke-dasharray:none"
         d="m 0,0 c 0,0 -0.253,-17.289 22.612,-19.451 22.865,-2.164 27.457,17.089 27.457,17.089"
         inkscape:connector-curvature="0" />
    </g>
    <g
       transform="matrix(-1.2471054,-0.08501911,0.08501911,-1.2471054,408.1534,571.59706)"
       id="g3211">
      <path
         id="path3213"
         style="fill:none;stroke:#231f20;stroke-width:1;stroke-linecap:butt;stroke-linejoin:miter;stroke-miterlimit:4;stroke-opacity:1;stroke-dasharray:none"
         d="M 0,0 C 1.397,2.019 5.386,2.255 6.918,0.907"
         inkscape:connector-curvature="0" />
    </g>
    <g
       transform="matrix(-1.2471054,-0.08501911,0.08501911,-1.2471054,344.80782,568.58292)"
       id="g3215">
      <path
         id="path3217"
         style="fill:none;stroke:#231f20;stroke-width:1;stroke-linecap:butt;stroke-linejoin:miter;stroke-miterlimit:4;stroke-opacity:1;stroke-dasharray:none"
         d="M 0,0 C 1.728,1.289 4.793,0.398 5.905,-1.109"
         inkscape:connector-curvature="0" />
    </g>
    <g
       transform="matrix(-1.2471054,-0.08501911,0.08501911,-1.2471054,383.72832,601.68024)"
       id="g3219">
      <path
         id="path3221"
         style="fill:#abaaaa;fill-opacity:1;fill-rule:nonzero;stroke:none"
         d="m 0,0 c 0,0 18.073,1.649 18.393,-2.596 0.317,-4.246 0.625,-7.036 -2.301,-8.13 -1.994,-0.743 -15.807,-1.379 -17.24,2.199 C -2.582,-4.948 -0.803,-0.934 0,0"
         inkscape:connector-curvature="0" />
    </g>
    <g
       transform="matrix(-1.2471054,-0.08501911,0.08501911,-1.2471054,383.72832,601.68024)"
       id="g3223">
      <path
         id="path3225"
         style="fill:none;stroke:#231f20;stroke-width:1;stroke-linecap:butt;stroke-linejoin:miter;stroke-miterlimit:4;stroke-opacity:1;stroke-dasharray:none"
         d="m 0,0 c 0,0 18.073,1.649 18.393,-2.596 0.317,-4.246 0.625,-7.036 -2.301,-8.13 -1.994,-0.743 -15.807,-1.379 -17.24,2.199 C -2.582,-4.948 -0.803,-0.934 0,0 z"
         inkscape:connector-curvature="0" />
    </g>
    <g
       transform="matrix(-1.2471054,-0.08501911,0.08501911,-1.2471054,358.48287,601.34188)"
       id="g3227">
      <path
         id="path3229"
         style="fill:#abaaaa;fill-opacity:1;fill-rule:nonzero;stroke:none"
         d="m 0,0 c 0,0 13.835,1.814 14.023,-0.694 0.188,-2.509 0.925,-5.849 -0.592,-7.613 -1.517,-1.763 -14.977,-1.416 -14.977,-1.416 0,0 2.358,2.215 2.153,4.916 C 0.405,-2.105 0,0 0,0"
         inkscape:connector-curvature="0" />
    </g>
    <g
       transform="matrix(-1.2471054,-0.08501911,0.08501911,-1.2471054,358.48287,601.34188)"
       id="g3231">
      <path
         id="path3233"
         style="fill:none;stroke:#231f20;stroke-width:1;stroke-linecap:butt;stroke-linejoin:miter;stroke-miterlimit:4;stroke-opacity:1;stroke-dasharray:none"
         d="m 0,0 c 0,0 13.835,1.814 14.023,-0.694 0.188,-2.509 0.925,-5.849 -0.592,-7.613 -1.517,-1.763 -14.977,-1.416 -14.977,-1.416 0,0 2.358,2.215 2.153,4.916 C 0.405,-2.105 0,0 0,0 z"
         inkscape:connector-curvature="0" />
    </g>
    <g
       transform="matrix(-1.2471054,-0.08501911,0.08501911,-1.2471054,387.91706,600.69457)"
       id="g3235">
      <path
         id="path3237"
         style="fill:#abaaaa;fill-opacity:1;fill-rule:nonzero;stroke:none"
         d="m 0,0 c 0,0 -13.786,2.155 -14.036,-0.348 -0.25,-2.504 -1.067,-5.825 0.406,-7.626 1.472,-1.798 14.683,-2.623 14.683,-2.623 0,0 -2.075,3.303 -1.805,5.998 C -0.484,-1.903 0,0 0,0"
         inkscape:connector-curvature="0" />
    </g>
    <g
       transform="matrix(-1.2471054,-0.08501911,0.08501911,-1.2471054,387.91706,600.69457)"
       id="g3239">
      <path
         id="path3241"
         style="fill:none;stroke:#231f20;stroke-width:1;stroke-linecap:butt;stroke-linejoin:miter;stroke-miterlimit:4;stroke-opacity:1;stroke-dasharray:none"
         d="m 0,0 c 0,0 -13.786,2.155 -14.036,-0.348 -0.25,-2.504 -1.067,-5.825 0.406,-7.626 1.472,-1.798 14.683,-2.623 14.683,-2.623 0,0 -2.075,3.303 -1.805,5.998 C -0.484,-1.903 0,0 0,0 z"
         inkscape:connector-curvature="0" />
    </g>
    <g
       transform="matrix(-1.2471054,-0.08501911,0.08501911,-1.2471054,380.33142,619.91193)"
       id="g3243">
      <path
         id="path3245"
         style="fill:#abaaaa;fill-opacity:1;fill-rule:nonzero;stroke:none"
         d="m 0,0 c 0,0 13.277,1.191 13.49,-1.646 0.213,-2.835 0.426,-4.7 -1.729,-5.446 C 10.294,-7.6 0.148,-8.093 -0.886,-5.707 -1.92,-3.321 -0.594,-0.629 0,0"
         inkscape:connector-curvature="0" />
    </g>
    <g
       transform="matrix(-1.2471054,-0.08501911,0.08501911,-1.2471054,380.33142,619.91193)"
       id="g3247">
      <path
         id="path3249"
         style="fill:none;stroke:#231f20;stroke-width:1;stroke-linecap:butt;stroke-linejoin:miter;stroke-miterlimit:4;stroke-opacity:1;stroke-dasharray:none"
         d="m 0,0 c 0,0 13.277,1.191 13.49,-1.646 0.213,-2.835 0.426,-4.7 -1.729,-5.446 C 10.294,-7.6 0.148,-8.093 -0.886,-5.707 -1.92,-3.321 -0.594,-0.629 0,0 z"
         inkscape:connector-curvature="0" />
    </g>
    <g
       transform="matrix(-1.2471054,-0.08501911,0.08501911,-1.2471054,400.98741,619.71109)"
       id="g3251">
      <path
         id="path3253"
         style="fill:#abaaaa;fill-opacity:1;fill-rule:nonzero;stroke:none"
         d="m 0,0 c 0,0 13.279,1.19 13.491,-1.646 0.214,-2.835 0.425,-4.7 -1.729,-5.446 C 10.295,-7.6 0.149,-8.094 -0.885,-5.708 -1.918,-3.321 -0.593,-0.629 0,0"
         inkscape:connector-curvature="0" />
    </g>
    <g
       transform="matrix(-1.2471054,-0.08501911,0.08501911,-1.2471054,400.98741,619.71109)"
       id="g3255">
      <path
         id="path3257"
         style="fill:none;stroke:#231f20;stroke-width:1;stroke-linecap:butt;stroke-linejoin:miter;stroke-miterlimit:4;stroke-opacity:1;stroke-dasharray:none"
         d="m 0,0 c 0,0 13.279,1.19 13.491,-1.646 0.214,-2.835 0.425,-4.7 -1.729,-5.446 C 10.295,-7.6 0.149,-8.094 -0.885,-5.708 -1.918,-3.321 -0.593,-0.629 0,0 z"
         inkscape:connector-curvature="0" />
    </g>
    <g
       transform="matrix(-1.2471054,-0.08501911,0.08501911,-1.2471054,380.53261,630.30477)"
       id="g3259">
      <path
         id="path3261"
         style="fill:#abaaaa;fill-opacity:1;fill-rule:nonzero;stroke:none"
         d="M 0,0 C 0,0 13.278,1.192 13.491,-1.644 13.705,-4.481 13.916,-6.345 11.762,-7.091 10.294,-7.599 0.149,-8.093 -0.885,-5.706 -1.919,-3.321 -0.594,-0.628 0,0"
         inkscape:connector-curvature="0" />
    </g>
    <g
       transform="matrix(-1.2471054,-0.08501911,0.08501911,-1.2471054,380.53261,630.30477)"
       id="g3263">
      <path
         id="path3265"
         style="fill:none;stroke:#231f20;stroke-width:1;stroke-linecap:butt;stroke-linejoin:miter;stroke-miterlimit:4;stroke-opacity:1;stroke-dasharray:none"
         d="M 0,0 C 0,0 13.278,1.192 13.491,-1.644 13.705,-4.481 13.916,-6.345 11.762,-7.091 10.294,-7.599 0.149,-8.093 -0.885,-5.706 -1.919,-3.321 -0.594,-0.628 0,0 z"
         inkscape:connector-curvature="0" />
    </g>
    <g
       transform="matrix(-1.2471054,-0.08501911,0.08501911,-1.2471054,401.1868,630.10402)"
       id="g3267">
      <path
         id="path3269"
         style="fill:#abaaaa;fill-opacity:1;fill-rule:nonzero;stroke:none"
         d="M 0,0 C 0,0 13.277,1.192 13.49,-1.645 13.704,-4.482 13.915,-6.346 11.762,-7.09 10.294,-7.599 0.148,-8.092 -0.886,-5.707 -1.92,-3.32 -0.595,-0.628 0,0"
         inkscape:connector-curvature="0" />
    </g>
    <g
       transform="matrix(-1.2471054,-0.08501911,0.08501911,-1.2471054,401.1868,630.10402)"
       id="g3271">
      <path
         id="path3273"
         style="fill:none;stroke:#231f20;stroke-width:1;stroke-linecap:butt;stroke-linejoin:miter;stroke-miterlimit:4;stroke-opacity:1;stroke-dasharray:none"
         d="M 0,0 C 0,0 13.277,1.192 13.49,-1.645 13.704,-4.482 13.915,-6.346 11.762,-7.09 10.294,-7.599 0.148,-8.092 -0.886,-5.707 -1.92,-3.32 -0.595,-0.628 0,0 z"
         inkscape:connector-curvature="0" />
    </g>
    <g
       transform="matrix(-1.2471054,-0.08501911,0.08501911,-1.2471054,381.0258,640.61369)"
       id="g3275">
      <path
         id="path3277"
         style="fill:#abaaaa;fill-opacity:1;fill-rule:nonzero;stroke:none"
         d="M 0,0 C 0,0 13.277,1.192 13.491,-1.646 13.703,-4.481 13.916,-6.345 11.762,-7.091 10.294,-7.599 0.148,-8.093 -0.886,-5.707 -1.92,-3.321 -0.595,-0.629 0,0"
         inkscape:connector-curvature="0" />
    </g>
    <g
       transform="matrix(-1.2471054,-0.08501911,0.08501911,-1.2471054,381.0258,640.61369)"
       id="g3279">
      <path
         id="path3281"
         style="fill:none;stroke:#231f20;stroke-width:1;stroke-linecap:butt;stroke-linejoin:miter;stroke-miterlimit:4;stroke-opacity:1;stroke-dasharray:none"
         d="M 0,0 C 0,0 13.277,1.192 13.491,-1.646 13.703,-4.481 13.916,-6.345 11.762,-7.091 10.294,-7.599 0.148,-8.093 -0.886,-5.707 -1.92,-3.321 -0.595,-0.629 0,0 z"
         inkscape:connector-curvature="0" />
    </g>
    <g
       transform="matrix(-1.2471054,-0.08501911,0.08501911,-1.2471054,401.68109,640.41291)"
       id="g3283">
      <path
         id="path3285"
         style="fill:#abaaaa;fill-opacity:1;fill-rule:nonzero;stroke:none"
         d="m 0,0 c 0,0 13.278,1.191 13.49,-1.646 0.214,-2.836 0.426,-4.7 -1.728,-5.446 C 10.294,-7.6 0.148,-8.094 -0.886,-5.707 -1.92,-3.321 -0.594,-0.629 0,0"
         inkscape:connector-curvature="0" />
    </g>
    <g
       transform="matrix(-1.2471054,-0.08501911,0.08501911,-1.2471054,401.68109,640.41291)"
       id="g3287">
      <path
         id="path3289"
         style="fill:none;stroke:#231f20;stroke-width:1;stroke-linecap:butt;stroke-linejoin:miter;stroke-miterlimit:4;stroke-opacity:1;stroke-dasharray:none"
         d="m 0,0 c 0,0 13.278,1.191 13.49,-1.646 0.214,-2.836 0.426,-4.7 -1.728,-5.446 C 10.294,-7.6 0.148,-8.094 -0.886,-5.707 -1.92,-3.321 -0.594,-0.629 0,0 z"
         inkscape:connector-curvature="0" />
    </g>
    <g
       transform="matrix(-1.2471054,-0.08501911,0.08501911,-1.2471054,360.6664,619.47659)"
       id="g3291">
      <path
         id="path3293"
         style="fill:#abaaaa;fill-opacity:1;fill-rule:nonzero;stroke:none"
         d="m 0,0 c 0,0 13.277,1.19 13.49,-1.646 0.213,-2.836 0.425,-4.7 -1.729,-5.446 C 10.293,-7.6 0.148,-8.094 -0.886,-5.708 -1.92,-3.322 -0.595,-0.63 0,0"
         inkscape:connector-curvature="0" />
    </g>
    <g
       transform="matrix(-1.2471054,-0.08501911,0.08501911,-1.2471054,360.6664,619.47659)"
       id="g3295">
      <path
         id="path3297"
         style="fill:none;stroke:#231f20;stroke-width:1;stroke-linecap:butt;stroke-linejoin:miter;stroke-miterlimit:4;stroke-opacity:1;stroke-dasharray:none"
         d="m 0,0 c 0,0 13.277,1.19 13.49,-1.646 0.213,-2.836 0.425,-4.7 -1.729,-5.446 C 10.293,-7.6 0.148,-8.094 -0.886,-5.708 -1.92,-3.322 -0.595,-0.63 0,0 z"
         inkscape:connector-curvature="0" />
    </g>
    <g
       transform="matrix(-1.2471054,-0.08501911,0.08501911,-1.2471054,360.86749,629.87084)"
       id="g3299">
      <path
         id="path3301"
         style="fill:#abaaaa;fill-opacity:1;fill-rule:nonzero;stroke:none"
         d="M 0,0 C 0,0 13.278,1.191 13.491,-1.645 13.704,-4.481 13.917,-6.344 11.762,-7.091 10.294,-7.6 0.149,-8.092 -0.886,-5.705 -1.919,-3.32 -0.594,-0.628 0,0"
         inkscape:connector-curvature="0" />
    </g>
    <g
       transform="matrix(-1.2471054,-0.08501911,0.08501911,-1.2471054,360.86749,629.87084)"
       id="g3303">
      <path
         id="path3305"
         style="fill:none;stroke:#231f20;stroke-width:1;stroke-linecap:butt;stroke-linejoin:miter;stroke-miterlimit:4;stroke-opacity:1;stroke-dasharray:none"
         d="M 0,0 C 0,0 13.278,1.191 13.491,-1.645 13.704,-4.481 13.917,-6.344 11.762,-7.091 10.294,-7.6 0.149,-8.092 -0.886,-5.705 -1.919,-3.32 -0.594,-0.628 0,0 z"
         inkscape:connector-curvature="0" />
    </g>
    <g
       transform="matrix(-1.2471054,-0.08501911,0.08501911,-1.2471054,361.36137,640.17971)"
       id="g3307">
      <path
         id="path3309"
         style="fill:#abaaaa;fill-opacity:1;fill-rule:nonzero;stroke:none"
         d="M 0,0 C 0,0 13.277,1.191 13.491,-1.645 13.705,-4.481 13.917,-6.346 11.762,-7.092 10.294,-7.6 0.149,-8.093 -0.885,-5.707 -1.919,-3.32 -0.594,-0.629 0,0"
         inkscape:connector-curvature="0" />
    </g>
    <g
       transform="matrix(-1.2471054,-0.08501911,0.08501911,-1.2471054,361.36137,640.17971)"
       id="g3311">
      <path
         id="path3313"
         style="fill:none;stroke:#231f20;stroke-width:1;stroke-linecap:butt;stroke-linejoin:miter;stroke-miterlimit:4;stroke-opacity:1;stroke-dasharray:none"
         d="M 0,0 C 0,0 13.277,1.191 13.491,-1.645 13.705,-4.481 13.917,-6.346 11.762,-7.092 10.294,-7.6 0.149,-8.093 -0.885,-5.707 -1.919,-3.32 -0.594,-0.629 0,0 z"
         inkscape:connector-curvature="0" />
    </g>
    <g
       transform="matrix(-1.2471054,-0.08501911,0.08501911,-1.2471054,374.18463,652.67883)"
       id="g3315">
      <path
         id="path3317"
         style="fill:none;stroke:#231f20;stroke-width:1;stroke-linecap:butt;stroke-linejoin:miter;stroke-miterlimit:4;stroke-opacity:1;stroke-dasharray:none"
         d="M 0,0 C -1.121,-1.803 -1.118,-4.352 -0.352,-5.654"
         inkscape:connector-curvature="0" />
    </g>
    <g
       transform="matrix(-1.2471054,-0.08501911,0.08501911,-1.2471054,367.97179,504.56468)"
       id="g3319">
      <path
         id="path3321"
         style="fill:none;stroke:#231f20;stroke-width:1;stroke-linecap:butt;stroke-linejoin:miter;stroke-miterlimit:4;stroke-opacity:1;stroke-dasharray:none"
         d="M 0,0 C -1.121,-1.802 -1.118,-4.352 -0.352,-5.654"
         inkscape:connector-curvature="0" />
    </g>
    <g
       transform="matrix(-1.2471054,-0.08501911,0.08501911,-1.2471054,371.86268,504.86771)"
       id="g3323">
      <path
         id="path3325"
         style="fill:none;stroke:#231f20;stroke-width:1;stroke-linecap:butt;stroke-linejoin:miter;stroke-miterlimit:4;stroke-opacity:1;stroke-dasharray:none"
         d="M 0,0 C -1.121,-1.802 -1.118,-4.351 -0.351,-5.653"
         inkscape:connector-curvature="0" />
    </g>
    <g
       transform="matrix(-1.2471054,-0.08501911,0.08501911,-1.2471054,376.31022,505.26403)"
       id="g3327">
      <path
         id="path3329"
         style="fill:none;stroke:#231f20;stroke-width:1;stroke-linecap:butt;stroke-linejoin:miter;stroke-miterlimit:4;stroke-opacity:1;stroke-dasharray:none"
         d="M 0,0 C -1.12,-1.802 -1.118,-4.352 -0.352,-5.654"
         inkscape:connector-curvature="0" />
    </g>
    <g
       transform="matrix(-1.2471054,-0.08501911,0.08501911,-1.2471054,380.08051,505.71311)"
       id="g3331">
      <path
         id="path3333"
         style="fill:none;stroke:#231f20;stroke-width:1;stroke-linecap:butt;stroke-linejoin:miter;stroke-miterlimit:4;stroke-opacity:1;stroke-dasharray:none"
         d="M 0,0 C -1.121,-1.802 -1.118,-4.352 -0.352,-5.653"
         inkscape:connector-curvature="0" />
    </g>
    <g
       transform="matrix(-1.2471054,-0.08501911,0.08501911,-1.2471054,391.45855,539.99658)"
       id="g3335">
      <path
         id="path3337"
         style="fill:#ffffff;fill-opacity:1;fill-rule:nonzero;stroke:none"
         d="M 0,0 C 0.12,-1.596 -0.805,-2.966 -2.066,-3.06 -5.976,-3.354 -5.238,8.581 -4.567,-0.344 -4.687,1.251 -3.761,2.621 -2.5,2.715 -1.239,2.811 -0.119,1.595 0,0"
         inkscape:connector-curvature="0" />
    </g>
    <g
       transform="matrix(-1.2471054,-0.08501911,0.08501911,-1.2471054,391.45855,539.99658)"
       id="g3339">
      <path
         id="path3341"
         style="fill:none;stroke:#231f20;stroke-width:1;stroke-linecap:butt;stroke-linejoin:miter;stroke-miterlimit:4;stroke-opacity:1;stroke-dasharray:none"
         d="M 0,0 C 0.12,-1.596 -0.805,-2.966 -2.066,-3.06 -5.976,-3.354 -5.238,8.581 -4.567,-0.344 -4.687,1.251 -3.761,2.621 -2.5,2.715 -1.239,2.811 -0.119,1.595 0,0 z"
         inkscape:connector-curvature="0" />
    </g>
    <g
       transform="matrix(-1.2471054,-0.08501911,0.08501911,-1.2471054,359.61987,536.87163)"
       id="g3343">
      <path
         id="path3345"
         style="fill:#ffffff;fill-opacity:1;fill-rule:nonzero;stroke:none"
         d="m 0,0 c 0.12,-1.596 -0.806,-2.965 -2.067,-3.06 -1.261,-0.094 -2.38,1.122 -2.5,2.717 -0.12,1.595 0.806,2.965 2.067,3.059 C -1.24,2.811 -0.12,1.595 0,0"
         inkscape:connector-curvature="0" />
    </g>
    <g
       transform="matrix(-1.2471054,-0.08501911,0.08501911,-1.2471054,359.61987,536.87163)"
       id="g3347">
      <path
         id="path3349"
         style="fill:none;stroke:#231f20;stroke-width:1;stroke-linecap:butt;stroke-linejoin:miter;stroke-miterlimit:4;stroke-opacity:1;stroke-dasharray:none"
         d="m 0,0 c 0.12,-1.596 -0.806,-2.965 -2.067,-3.06 -1.261,-0.094 -2.38,1.122 -2.5,2.717 -0.12,1.595 0.806,2.965 2.067,3.059 C -1.24,2.811 -0.12,1.595 0,0 z"
         inkscape:connector-curvature="0" />
    </g>
    <g
       transform="matrix(-1.2471054,-0.08501911,0.08501911,-1.2471054,436.64589,599.89201)"
       id="g3351">
      <path
         id="path3353"
         style="fill:#ffffff;fill-opacity:1;fill-rule:nonzero;stroke:#231f20;stroke-width:2;stroke-linecap:butt;stroke-linejoin:miter;stroke-miterlimit:4;stroke-opacity:1;stroke-dasharray:none"
         d="m 0,0 2.852,-3.438 -6.087,-2.121 c 0,0 -0.228,-2.603 -1.33,-4.396 -1.102,-1.794 -2.036,-4.322 -9.214,-4.166 -7.179,0.155 -8.423,5.394 -8.423,5.394 0,0 -3.745,9.988 3.13,15.371 6.876,5.381 11.719,0.782 12.262,-1.494 0.384,-1.607 3.542,3.407 5.134,5.996 1.591,2.591 -1.295,-7.784 -0.834,-7.035"
         inkscape:connector-curvature="0" />
    </g>
    <g
       transform="matrix(-1.2471054,-0.08501911,0.08501911,-1.2471054,423.15052,589.05643)"
       id="g3355">
      <path
         id="path3357"
         style="fill:#949594;fill-opacity:1;fill-rule:nonzero;stroke:none"
         d="m 0,0 0.734,9.665 c 0,0 -2.557,-4.237 -6.378,-7.076 -3.819,-2.839 -7.897,-6.364 -7.897,-6.364 0.442,-1.5 0.845,-4.282 2.352,-4.014 C -3.548,-6.435 0,0 0,0"
         inkscape:connector-curvature="0" />
    </g>
    <g
       transform="matrix(-1.2471054,-0.08501911,0.08501911,-1.2471054,423.15052,589.05643)"
       id="g3359">
      <path
         id="path3361"
         style="fill:none;stroke:#231f20;stroke-width:2;stroke-linecap:butt;stroke-linejoin:miter;stroke-miterlimit:4;stroke-opacity:1;stroke-dasharray:none"
         d="m 0,0 0.734,9.665 c 0,0 -2.557,-4.237 -6.378,-7.076 -3.819,-2.839 -7.897,-6.364 -7.897,-6.364 0.442,-1.5 0.845,-4.282 2.352,-4.014 C -3.548,-6.435 0,0 0,0 z"
         inkscape:connector-curvature="0" />
    </g>
    <g
       transform="matrix(-1.2471054,-0.08501911,0.08501911,-1.2471054,346.499,676.12839)"
       id="g3363">
      <path
         id="path3365"
         style="fill:#abaaaa;fill-opacity:1;fill-rule:nonzero;stroke:none"
         d="m 0,0 c -1.421,0.511 -3.045,2.255 -3.59,3.411 -0.544,1.155 0.188,3.085 1.105,5.634 l 0.918,2.549 -4.635,-0.448 c 0,0 -0.088,-3.336 -1.015,-5.915 -0.929,-2.578 3.072,-7.012 3.072,-7.012 L 0,0 z"
         inkscape:connector-curvature="0" />
    </g>
    <g
       transform="matrix(-1.2471054,-0.08501911,0.08501911,-1.2471054,346.499,676.12839)"
       id="g3367">
      <path
         id="path3369"
         style="fill:none;stroke:#231f20;stroke-width:2;stroke-linecap:butt;stroke-linejoin:miter;stroke-miterlimit:4;stroke-opacity:1;stroke-dasharray:none"
         d="m 0,0 c -1.421,0.511 -3.045,2.255 -3.59,3.411 -0.544,1.155 0.188,3.085 1.105,5.634 l 0.918,2.549 -4.635,-0.448 c 0,0 -0.088,-3.336 -1.015,-5.915 -0.929,-2.578 3.072,-7.012 3.072,-7.012 L 0,0 z"
         inkscape:connector-curvature="0" />
    </g>
    <g
       transform="matrix(-1.2471054,-0.08501911,0.08501911,-1.2471054,380.79056,669.59541)"
       id="g3371">
      <path
         id="path3373"
         style="fill:#fff205;fill-opacity:1;fill-rule:nonzero;stroke:none"
         d="m 0,0 c -3.656,-0.193 -9.413,-6.883 -17.961,-2.571 -2.414,1.217 -9.593,4.377 -14.887,-0.918 -9.488,-9.489 4.591,-16.086 4.591,-16.086 2.081,-2.08 27.178,-2.233 31.598,5.648 C 6.741,-7.865 6.975,0.367 0,0"
         inkscape:connector-curvature="0" />
    </g>
    <g
       transform="matrix(-1.2471054,-0.08501911,0.08501911,-1.2471054,380.79056,669.59541)"
       id="g3375">
      <path
         id="path3377"
         style="fill:none;stroke:#231f20;stroke-width:2;stroke-linecap:butt;stroke-linejoin:miter;stroke-miterlimit:4;stroke-opacity:1;stroke-dasharray:none"
         d="m 0,0 c -3.656,-0.193 -9.413,-6.883 -17.961,-2.571 -2.414,1.217 -9.593,4.377 -14.887,-0.918 -9.488,-9.489 4.591,-16.086 4.591,-16.086 2.081,-2.08 27.178,-2.233 31.598,5.648 C 6.741,-7.865 6.975,0.367 0,0 z"
         inkscape:connector-curvature="0" />
    </g>
    <g
       transform="matrix(-1.2471054,-0.08501911,0.08501911,-1.2471054,493.80189,575.8822)"
       id="g3379">
      <path
         id="path3381"
         style="fill:#231f20;fill-opacity:1;fill-rule:nonzero;stroke:none"
         d="M 0,0 C -4.125,7.255 -1.538,16.508 5.778,20.668 13.094,24.828 22.37,22.32 26.495,15.064 30.62,7.81 28.033,-1.443 20.716,-5.604 13.4,-9.765 4.125,-7.256 0,0"
         inkscape:connector-curvature="0" />
    </g>
    <g
       transform="matrix(-1.2471054,-0.08501911,0.08501911,-1.2471054,493.80189,575.8822)"
       id="g3383">
      <path
         id="path3385"
         style="fill:none;stroke:#231f20;stroke-width:1;stroke-linecap:butt;stroke-linejoin:miter;stroke-miterlimit:4;stroke-opacity:1;stroke-dasharray:none"
         d="M 0,0 C -4.125,7.255 -1.538,16.508 5.778,20.668 13.094,24.828 22.37,22.32 26.495,15.064 30.62,7.81 28.033,-1.443 20.716,-5.604 13.4,-9.765 4.125,-7.256 0,0 z"
         inkscape:connector-curvature="0" />
    </g>
    <g
       transform="matrix(-1.2471054,-0.08501911,0.08501911,-1.2471054,450.35312,585.21172)"
       id="g3387">
      <path
         id="path3389"
         style="fill:#00ff00;fill-opacity:1;fill-rule:nonzero;stroke:none"
         d="M 0,0 -14.416,-9.331 -20.774,0.492 -6.358,9.823 0,0 z"
         inkscape:connector-curvature="0" />
    </g>
    <g
       transform="matrix(-1.2471054,-0.08501911,0.08501911,-1.2471054,450.35312,585.21172)"
       id="g3391">
      <path
         id="path3393"
         style="fill:none;stroke:#231f20;stroke-width:2;stroke-linecap:butt;stroke-linejoin:miter;stroke-miterlimit:4;stroke-opacity:1;stroke-dasharray:none"
         d="M 0,0 -14.416,-9.331 -20.774,0.492 -6.358,9.823 0,0 z"
         inkscape:connector-curvature="0" />
    </g>
    <g
       transform="matrix(-1.2471054,-0.08501911,0.08501911,-1.2471054,312.38052,533.98775)"
       id="g3395">
      <path
         id="path3397"
         style="fill:#2e2d2d;fill-opacity:1;fill-rule:nonzero;stroke:none"
         d="m 0,0 c 0,-24.035 0.744,-26.844 -9.579,-25.157 -3.697,0.604 -6.759,7.313 -6.759,16.336 0,9.022 3.025,16.336 6.759,16.336 C -5.844,7.515 0,9.022 0,0"
         inkscape:connector-curvature="0" />
    </g>
    <g
       transform="matrix(-1.2471054,-0.08501911,0.08501911,-1.2471054,312.38052,533.98775)"
       id="g3399">
      <path
         id="path3401"
         style="fill:none;stroke:#231f20;stroke-width:2;stroke-linecap:butt;stroke-linejoin:miter;stroke-miterlimit:4;stroke-opacity:1;stroke-dasharray:none"
         d="m 0,0 c 0,-24.035 0.744,-26.844 -9.579,-25.157 -3.697,0.604 -6.759,7.313 -6.759,16.336 0,9.022 3.025,16.336 6.759,16.336 C -5.844,7.515 0,9.022 0,0 z"
         inkscape:connector-curvature="0" />
    </g>
    <g
       transform="matrix(-1.2471054,-0.08501911,0.08501911,-1.2471054,307.79504,545.15543)"
       id="g3403">
      <path
         id="path3405"
         style="fill:#2e2d2d;fill-opacity:1;fill-rule:nonzero;stroke:none"
         d="m 0,0 c 0,-9.022 -3.027,-16.336 -6.76,-16.336 -3.734,0 -6.761,7.314 -6.761,16.336 0,9.022 3.027,16.336 6.761,16.336 C -3.027,16.336 0,9.022 0,0"
         inkscape:connector-curvature="0" />
    </g>
    <g
       transform="matrix(-1.2471054,-0.08501911,0.08501911,-1.2471054,307.79504,545.15543)"
       id="g3407">
      <path
         id="path3409"
         style="fill:none;stroke:#231f20;stroke-width:2;stroke-linecap:butt;stroke-linejoin:miter;stroke-miterlimit:4;stroke-opacity:1;stroke-dasharray:none"
         d="m 0,0 c 0,-9.022 -3.027,-16.336 -6.76,-16.336 -3.734,0 -6.761,7.314 -6.761,16.336 0,9.022 3.027,16.336 6.761,16.336 C -3.027,16.336 0,9.022 0,0 z"
         inkscape:connector-curvature="0" />
    </g>
    <g
       transform="matrix(-1.2471054,-0.08501911,0.08501911,-1.2471054,306.40522,539.55363)"
       id="g3411">
      <path
         id="path3413"
         style="fill:#2e2d2d;fill-opacity:1;fill-rule:nonzero;stroke:none"
         d="m 0,0 c 0,-12.387 0.458,-13.834 -5.914,-12.965 -2.283,0.312 -4.173,3.77 -4.173,8.419 0,4.649 1.868,8.417 4.173,8.417 C -3.608,3.871 0,4.648 0,0"
         inkscape:connector-curvature="0" />
    </g>
    <g
       transform="matrix(-1.2471054,-0.08501911,0.08501911,-1.2471054,306.40522,539.55363)"
       id="g3415">
      <path
         id="path3417"
         style="fill:none;stroke:#231f20;stroke-width:2;stroke-linecap:butt;stroke-linejoin:miter;stroke-miterlimit:4;stroke-opacity:1;stroke-dasharray:none"
         d="m 0,0 c 0,-12.387 0.458,-13.834 -5.914,-12.965 -2.283,0.312 -4.173,3.77 -4.173,8.419 0,4.649 1.868,8.417 4.173,8.417 C -3.608,3.871 0,4.648 0,0 z"
         inkscape:connector-curvature="0" />
    </g>
    <g
       transform="matrix(-1.2471054,-0.08501911,0.08501911,-1.2471054,303.65435,545.28309)"
       id="g3419">
      <path
         id="path3421"
         style="fill:#2e2d2d;fill-opacity:1;fill-rule:nonzero;stroke:none"
         d="m 0,0 c 0,-4.649 -1.868,-8.418 -4.173,-8.418 -2.306,0 -4.174,3.769 -4.174,8.418 0,4.649 1.868,8.418 4.174,8.418 C -1.868,8.418 0,4.649 0,0"
         inkscape:connector-curvature="0" />
    </g>
    <g
       transform="matrix(-1.2471054,-0.08501911,0.08501911,-1.2471054,303.65435,545.28309)"
       id="g3423">
      <path
         id="path3425"
         style="fill:none;stroke:#231f20;stroke-width:2;stroke-linecap:butt;stroke-linejoin:miter;stroke-miterlimit:4;stroke-opacity:1;stroke-dasharray:none"
         d="m 0,0 c 0,-4.649 -1.868,-8.418 -4.173,-8.418 -2.306,0 -4.174,3.769 -4.174,8.418 0,4.649 1.868,8.418 4.174,8.418 C -1.868,8.418 0,4.649 0,0 z"
         inkscape:connector-curvature="0" />
    </g>
    <g
       transform="matrix(-1.2471054,-0.08501911,0.08501911,-1.2471054,301.54794,595.49289)"
       id="g3427">
      <path
         id="path3429"
         style="fill:#ffffff;fill-opacity:1;fill-rule:nonzero;stroke:#231f20;stroke-width:2;stroke-linecap:butt;stroke-linejoin:miter;stroke-miterlimit:4;stroke-opacity:1;stroke-dasharray:none"
         d="m 0,0 3.434,2.858 2.13,-6.083 c 0,0 2.606,-0.222 4.401,-1.32 1.796,-1.1 4.326,-2.028 4.183,-9.207 -0.141,-7.18 -5.377,-8.434 -5.377,-8.434 0,0 -9.98,-3.763 -15.377,3.101 -5.395,6.866 -0.806,11.719 1.469,12.266 1.607,0.387 -3.412,3.534 -6.007,5.12 -2.594,1.588 7.788,-1.279 7.038,-0.82"
         inkscape:connector-curvature="0" />
    </g>
    <g
       transform="matrix(-1.2471054,-0.08501911,0.08501911,-1.2471054,323.43532,575.32848)"
       id="g3431">
      <path
         id="path3433"
         style="fill:#949594;fill-opacity:1;fill-rule:nonzero;stroke:none"
         d="m 0,0 -0.641,-7.587 c 0,0 4.875,-1.133 7.721,-4.947 2.845,-3.815 3.379,-7.111 3.379,-7.111 1.501,0.446 6.183,0.854 5.913,2.36 C 15.002,-9.646 0,0 0,0"
         inkscape:connector-curvature="0" />
    </g>
    <g
       transform="matrix(-1.2471054,-0.08501911,0.08501911,-1.2471054,323.43532,575.32848)"
       id="g3435">
      <path
         id="path3437"
         style="fill:none;stroke:#231f20;stroke-width:2;stroke-linecap:butt;stroke-linejoin:miter;stroke-miterlimit:4;stroke-opacity:1;stroke-dasharray:none"
         d="m 0,0 -0.641,-7.587 c 0,0 4.875,-1.133 7.721,-4.947 2.845,-3.815 3.379,-7.111 3.379,-7.111 1.501,0.446 6.183,0.854 5.913,2.36 C 15.002,-9.646 0,0 0,0 z"
         inkscape:connector-curvature="0" />
    </g>
    <g
       transform="matrix(-1.2471054,-0.08501911,0.08501911,-1.2471054,319.91295,525.00898)"
       id="g3439">
      <path
         id="path3441"
         style="fill:#2e2d2d;fill-opacity:1;fill-rule:nonzero;stroke:none"
         d="M 0,0 C 0,16.403 -8.255,37.194 -47.342,36.42 -86.42,35.647 -87.794,2.74 -87.794,2.74 l 3.495,-0.331 c 0,0 -1.8,29.882 37.188,30.657 C -8.273,33.84 -1.289,6.229 -3.03,0 L 0,0 z"
         inkscape:connector-curvature="0" />
    </g>
    <g
       transform="matrix(-1.2471054,-0.08501911,0.08501911,-1.2471054,319.91295,525.00898)"
       id="g3443">
      <path
         id="path3445"
         style="fill:none;stroke:#231f20;stroke-width:2;stroke-linecap:butt;stroke-linejoin:miter;stroke-miterlimit:4;stroke-opacity:1;stroke-dasharray:none"
         d="M 0,0 C 0,16.403 -8.255,37.194 -47.342,36.42 -86.42,35.647 -87.794,2.74 -87.794,2.74 l 3.495,-0.331 c 0,0 -1.8,29.882 37.188,30.657 C -8.273,33.84 -1.289,6.229 -3.03,0 L 0,0 z"
         inkscape:connector-curvature="0" />
    </g>
    <path
       style="fill:none;stroke:none"
       d="m 287.14286,494.50504 c 0,0 25,-45.71429 85.71429,-47.14286 60.71428,-1.42857 91.42857,41.42857 91.42857,41.42857 l 0.71428,0"
       id="path10260"
       inkscape:connector-curvature="0" />
    <text
       xml:space="preserve"
       style="font-size:40px;font-style:normal;font-weight:normal;line-height:125%;letter-spacing:0px;word-spacing:0px;fill:#000000;fill-opacity:1;stroke:none;font-family:Sans"
       id="text10262"
       sodipodi:linespacing="125%"
       transform="matrix(1.0897436,0.15703445,-0.15703445,1.0897436,55.284321,-78.030185)"><textPath
         xlink:href="#path10260"
         id="textPath11037"
         style="stroke:#000000;stroke-opacity:1"><tspan
           style="fill:#00ff00;stroke:#000000;stroke-opacity:1"
           id="tspan11048">Ku</tspan><tspan
           style="fill:#ffff00;stroke:#000000;stroke-opacity:1"
           id="tspan11050">ma</tspan><tspan
           style="fill:#ff0000;stroke:#000000;stroke-opacity:1"
           id="tspan11052">blon</tspan></textPath></text>
  </g>
</svg>
