<?xml version="1.0" encoding="UTF-8" standalone="no"?>
<!-- Created with Inkscape (http://www.inkscape.org/) -->

<svg
   xmlns:dc="http://purl.org/dc/elements/1.1/"
   xmlns:cc="http://creativecommons.org/ns#"
   xmlns:rdf="http://www.w3.org/1999/02/22-rdf-syntax-ns#"
   xmlns:svg="http://www.w3.org/2000/svg"
   xmlns="http://www.w3.org/2000/svg"
   xmlns:sodipodi="http://sodipodi.sourceforge.net/DTD/sodipodi-0.dtd"
   xmlns:inkscape="http://www.inkscape.org/namespaces/inkscape"
   id="svg2985"
   version="1.1"
   inkscape:version="0.48.4 r9939"
   width="765"
   height="990"
   xml:space="preserve"
   sodipodi:docname="MouribaLos.svg"><metadata
     id="metadata2991"><rdf:RDF><cc:Work
         rdf:about=""><dc:format>image/svg+xml</dc:format><dc:type
           rdf:resource="http://purl.org/dc/dcmitype/StillImage" /><dc:title /></cc:Work></rdf:RDF></metadata><defs
     id="defs2989"><clipPath
       clipPathUnits="userSpaceOnUse"
       id="clipPath2999"><path
         d="M 0,792 612,792 612,0 0,0 0,792 z"
         id="path3001" /></clipPath><clipPath
       clipPathUnits="userSpaceOnUse"
       id="clipPath3007"><path
         d="m -238.899,743.427 1150.9,0 0,-689.1184 -1150.9,0 0,689.1184 z"
         id="path3009" /></clipPath><clipPath
       clipPathUnits="userSpaceOnUse"
       id="clipPath3019"><path
         d="M 0,792 612,792 612,0 0,0 0,792 z"
         id="path3021" /></clipPath></defs><sodipodi:namedview
     pagecolor="#ffffff"
     bordercolor="#666666"
     borderopacity="1"
     objecttolerance="10"
     gridtolerance="10"
     guidetolerance="10"
     inkscape:pageopacity="0"
     inkscape:pageshadow="2"
     inkscape:window-width="1680"
     inkscape:window-height="988"
     id="namedview2987"
     showgrid="false"
     inkscape:zoom="0.50373353"
     inkscape:cx="-112.99676"
     inkscape:cy="503.2352"
     inkscape:window-x="-32000"
     inkscape:window-y="-32000"
     inkscape:window-maximized="0"
     inkscape:current-layer="g3017" /><g
     id="g2993"
     inkscape:groupmode="layer"
     inkscape:label="MouribaDev4D"
     transform="matrix(1.25,0,0,-1.25,0,990)"><g
       id="g2995"><g
         id="g2997"
         clip-path="url(#clipPath2999)"><g
           id="g3003"><g
             id="g3005" /><g
             id="g3011"><g
               clip-path="url(#clipPath3007)"
               opacity="0.410004"
               id="g3013" /></g></g></g></g><g
       id="g3015"><g
         id="g3017"
         clip-path="url(#clipPath3019)"><g
           id="g3039"
           transform="matrix(0.68826843,-0.12761882,0.12761882,0.68826843,207.92619,350.38331)"><path
             inkscape:connector-curvature="0"
             d="m 0,0 c -11.762,28.614 -8.96,48.564 -3.198,125.68 8.969,120.042 26.977,119.759 26.977,119.759 31.157,9.699 136.929,27.456 163.499,-10.61 26.569,-38.066 -11.374,-240.409 -11.009,-245.287 0.367,-4.877 -18.895,-42.299 -34.791,-48.398 -13.884,-5.329 -86.054,-0.059 -115.06,17.043 0,0 -15.395,14.997 -26.418,41.813"
             style="fill:#5a5758;fill-opacity:1;fill-rule:nonzero;stroke:none"
             id="path3041" /></g><g
           id="g3043"
           transform="matrix(0.68826843,-0.12761882,0.12761882,0.68826843,207.92619,350.38331)"><path
             inkscape:connector-curvature="0"
             d="m 0,0 c -11.762,28.614 -8.96,48.564 -3.198,125.68 8.969,120.042 26.977,119.759 26.977,119.759 31.157,9.699 136.929,27.456 163.499,-10.61 26.569,-38.066 -11.374,-240.409 -11.009,-245.287 0.367,-4.877 -18.895,-42.299 -34.791,-48.398 -13.884,-5.329 -86.054,-0.059 -115.06,17.043 0,0 -15.395,14.997 -26.418,41.813 z"
             style="fill:none;stroke:#231f20;stroke-width:6;stroke-linecap:butt;stroke-linejoin:miter;stroke-miterlimit:4;stroke-opacity:1;stroke-dasharray:none"
             id="path3045" /></g><g
           id="g3047"
           transform="matrix(0.68826843,-0.12761882,0.12761882,0.68826843,263.82998,311.95478)"><path
             inkscape:connector-curvature="0"
             d="M 0,0 C -2.763,-4.442 -2.755,-10.727 -0.866,-13.937"
             style="fill:none;stroke:#231f20;stroke-width:3;stroke-linecap:butt;stroke-linejoin:miter;stroke-miterlimit:4;stroke-opacity:1;stroke-dasharray:none"
             id="path3049" /></g><g
           id="g3051"
           transform="matrix(0.7,0,0,0.7,288.26055,265.5436)"><path
             inkscape:connector-curvature="0"
             d="M 0,0 C 5.014,-1.152 9.423,-8.171 10.492,-12.401"
             style="fill:none;stroke:#231f20;stroke-width:6;stroke-linecap:butt;stroke-linejoin:miter;stroke-miterlimit:4;stroke-opacity:1;stroke-dasharray:none"
             id="path3053" /></g><g
           id="g3055"
           transform="matrix(0.7,0,0,0.7,239.18304,302.14827)"><path
             inkscape:connector-curvature="0"
             d="m 0,0 c 0,0 -24.75,-7.994 -16.6,-52.459 l -6.674,31.012 c 0.215,40.825 13.5,29.612 13.5,29.612 L 0,0 z"
             style="fill:#abaaaa;fill-opacity:1;fill-rule:nonzero;stroke:none"
             id="path3057" /></g><g
           id="g3059"
           transform="matrix(0.7,0,0,0.7,239.18304,302.14827)"><path
             inkscape:connector-curvature="0"
             d="M 4.2553191,5.9574468 C 4.2553191,5.9574468 -24.75,-7.994 -16.6,-52.459 l -6.674,31.012 c 0.215,40.825 13.5,29.612 13.5,29.612 z"
             style="fill:none;stroke:#231f20;stroke-width:6;stroke-linecap:butt;stroke-linejoin:miter;stroke-miterlimit:4;stroke-opacity:1;stroke-dasharray:none"
             id="path3061"
             sodipodi:nodetypes="ccccc" /></g><g
           id="g3063"
           transform="matrix(0.7,0,0,0.7,286.37517,274.05028)"><path
             inkscape:connector-curvature="0"
             d="m 0,0 c 0,0 31.581,13.233 46.991,7.955 26.819,-9.189 20.213,-28.106 20.213,-28.106 1.957,-4.763 -11.75,-20.506 -11.75,-20.506 0,0 -6.183,-6.08 -27.19,-1.739 -26.958,5.569 -49.193,12.646 -51.738,18.836 -2.546,6.193 -9.421,16.194 -6.11,24.211 3.452,8.359 3.452,8.359 11.975,8.261 6.374,-0.072 10.305,-5.609 10.305,-5.609"
             style="fill:#fff205;fill-opacity:1;fill-rule:nonzero;stroke:#231f20;stroke-width:6;stroke-linecap:butt;stroke-linejoin:miter;stroke-miterlimit:4;stroke-opacity:1;stroke-dasharray:none"
             id="path3065" /></g><g
           id="g3067"
           transform="matrix(0.68826843,-0.12761882,0.12761882,0.68826843,255.00369,497.58215)"><path
             inkscape:connector-curvature="0"
             d="m 0,0 c 0,0 -16.775,-114.136 -6.31,-132.482 10.466,-18.346 118.145,-25.561 133.708,-16.263 15.564,9.301 27.154,128.788 18.96,148.739 C 138.164,19.945 3.646,18.729 0,0"
             style="fill:#b6d1c6;fill-opacity:1;fill-rule:nonzero;stroke:none"
             id="path3069" /></g><g
           id="g3071"
           transform="matrix(0.68826843,-0.12761882,0.12761882,0.68826843,255.00369,497.58215)"><path
             inkscape:connector-curvature="0"
             d="m 0,0 c 0,0 -16.775,-114.136 -6.31,-132.482 10.466,-18.346 118.145,-25.561 133.708,-16.263 15.564,9.301 27.154,128.788 18.96,148.739 C 138.164,19.945 3.646,18.729 0,0 z"
             style="fill:none;stroke:#231f20;stroke-width:3;stroke-linecap:butt;stroke-linejoin:miter;stroke-miterlimit:4;stroke-opacity:1;stroke-dasharray:none"
             id="path3073" /></g><g
           id="g3075"
           transform="matrix(0.68826843,-0.12761882,0.12761882,0.68826843,299.19645,465.42836)"><path
             inkscape:connector-curvature="0"
             d="m 0,0 c 1.553,5.492 3.806,10.417 6.67,13.758 5.151,6.007 14.585,7.504 22.388,8.09 8.88,0.667 18.202,-1.968 24.551,-8.565 6.348,-6.597 7.56,-19.671 8.366,-30.405 0.786,-10.463 -1.921,-20.218 -6.96,-27.624 -5.299,-7.789 -13.378,-10.3 -22.482,-10.985 -8.399,-0.632 -16.137,0.009 -22.344,5.952 -5.011,4.797 -8.892,11.306 -10.974,18.83"
             style="fill:#ffffff;fill-opacity:1;fill-rule:nonzero;stroke:#231f20;stroke-width:3;stroke-linecap:butt;stroke-linejoin:miter;stroke-miterlimit:4;stroke-opacity:1;stroke-dasharray:none"
             id="path3077" /></g><g
           id="g3079"
           transform="matrix(0.68826843,-0.12761882,0.12761882,0.68826843,295.37932,444.95063)"><path
             inkscape:connector-curvature="0"
             d="m 0,0 c -1.215,-4.059 -2.99,-7.799 -5.221,-11.079 -5.298,-7.789 -13.377,-10.301 -22.481,-10.984 -8.4,-0.632 -16.137,0.007 -22.344,5.952 -6.92,6.622 -11.685,16.509 -12.535,27.825 -0.904,12.036 2.444,28.047 9.016,35.711 5.15,6.007 14.585,7.503 22.388,8.09 8.879,0.667 18.202,-1.969 24.551,-8.565 3.815,-3.966 5.774,-10.271 6.905,-17.001"
             style="fill:#ffffff;fill-opacity:1;fill-rule:nonzero;stroke:#231f20;stroke-width:3;stroke-linecap:butt;stroke-linejoin:miter;stroke-miterlimit:4;stroke-opacity:1;stroke-dasharray:none"
             id="path3081" /></g><g
           id="g3083"
           transform="matrix(0.68826843,-0.12761882,0.12761882,0.68826843,288.49695,458.93948)"><path
             d="m 0,0 c 2.656,-3.5 3.263,-10.341 3.685,-15.956 0.411,-5.473 -0.614,-10.547 -2.613,-14.372 -2.104,-4.024 -5.388,-5.267 -9.109,-5.547 -3.432,-0.258 -6.605,0.141 -9.196,3.3 -2.889,3.52 -4.924,8.725 -5.369,14.644 -0.473,6.296 0.761,14.634 3.384,18.582 2.058,3.092 5.907,3.795 9.095,4.035 C -6.493,4.958 -2.654,3.502 0,0"
             style="fill:#231f20;fill-opacity:1;fill-rule:nonzero;stroke:none"
             id="path3085"
             inkscape:connector-curvature="0" /></g><g
           id="g3087"
           transform="matrix(0.68826843,-0.12761882,0.12761882,0.68826843,288.49695,458.93948)"><path
             d="m 0,0 c 2.656,-3.5 3.263,-10.341 3.685,-15.956 0.411,-5.473 -0.614,-10.547 -2.613,-14.372 -2.104,-4.024 -5.388,-5.267 -9.109,-5.547 -3.432,-0.258 -6.605,0.141 -9.196,3.3 -2.889,3.52 -4.924,8.725 -5.369,14.644 -0.473,6.296 0.761,14.634 3.384,18.582 2.058,3.092 5.907,3.795 9.095,4.035 C -6.493,4.958 -2.654,3.502 0,0 z"
             style="fill:none;stroke:#231f20;stroke-width:3;stroke-linecap:butt;stroke-linejoin:miter;stroke-miterlimit:4;stroke-opacity:1;stroke-dasharray:none"
             id="path3089"
             inkscape:connector-curvature="0" /></g><g
           id="g3091"
           transform="matrix(0.68826843,-0.12761882,0.12761882,0.68826843,328.62702,448.83715)"><path
             d="m 0,0 c 2.598,-3.544 3.091,-10.393 3.419,-16.015 0.318,-5.479 -0.791,-10.536 -2.855,-14.326 -2.168,-3.989 -5.474,-5.177 -9.199,-5.394 -3.436,-0.2 -6.601,0.251 -9.14,3.453 -2.83,3.569 -4.777,8.806 -5.122,14.733 -0.369,6.302 1.003,14.617 3.694,18.521 2.109,3.058 5.968,3.696 9.16,3.882 C -6.408,5.066 -2.594,3.546 0,0"
             style="fill:#231f20;fill-opacity:1;fill-rule:nonzero;stroke:none"
             id="path3093"
             inkscape:connector-curvature="0" /></g><g
           id="g3095"
           transform="matrix(0.68826843,-0.12761882,0.12761882,0.68826843,328.62702,448.83715)"><path
             d="m 0,0 c 2.598,-3.544 3.091,-10.393 3.419,-16.015 0.318,-5.479 -0.791,-10.536 -2.855,-14.326 -2.168,-3.989 -5.474,-5.177 -9.199,-5.394 -3.436,-0.2 -6.601,0.251 -9.14,3.453 -2.83,3.569 -4.777,8.806 -5.122,14.733 -0.369,6.302 1.003,14.617 3.694,18.521 2.109,3.058 5.968,3.696 9.16,3.882 C -6.408,5.066 -2.594,3.546 0,0 z"
             style="fill:none;stroke:#231f20;stroke-width:3;stroke-linecap:butt;stroke-linejoin:miter;stroke-miterlimit:4;stroke-opacity:1;stroke-dasharray:none"
             id="path3097"
             inkscape:connector-curvature="0" /></g><g
           id="g3099"
           transform="matrix(0.68826843,-0.12761882,0.12761882,0.68826843,248.17989,434.85183)"><path
             inkscape:connector-curvature="0"
             d="m 0,0 c 0,0 -0.625,-42.614 55.736,-47.946 56.359,-5.333 67.677,42.123 67.677,42.123"
             style="fill:none;stroke:#231f20;stroke-width:6;stroke-linecap:butt;stroke-linejoin:miter;stroke-miterlimit:4;stroke-opacity:1;stroke-dasharray:none"
             id="path3101" /></g><g
           id="g3103"
           transform="matrix(0.68767038,-0.13080308,0.13080308,0.68767038,242.09209,433.32403)"><path
             d="M 0,0 C 3.442,4.977 13.273,5.56 17.05,2.237"
             style="fill:none;stroke:#231f20;stroke-width:3;stroke-linecap:butt;stroke-linejoin:miter;stroke-miterlimit:4;stroke-opacity:1;stroke-dasharray:none"
             id="path3105"
             inkscape:connector-curvature="0" /></g><g
           id="g3107"
           transform="matrix(0.68826843,-0.12761882,0.12761882,0.68826843,327.71357,415.78931)"><path
             inkscape:connector-curvature="0"
             d="M 0,0 C 4.257,3.178 11.813,0.983 14.554,-2.733"
             style="fill:none;stroke:#231f20;stroke-width:3;stroke-linecap:butt;stroke-linejoin:miter;stroke-miterlimit:4;stroke-opacity:1;stroke-dasharray:none"
             id="path3109" /></g><g
           id="g3111"
           transform="matrix(0.68826843,-0.12761882,0.12761882,0.68826843,264.31359,384.90479)"><path
             inkscape:connector-curvature="0"
             d="M 0,0 C 0,0 44.549,4.064 45.335,-6.398 46.12,-16.863 46.877,-23.741 39.666,-26.436 34.75,-28.271 0.702,-29.84 -2.831,-21.019 -6.363,-12.196 -1.979,-2.301 0,0"
             style="fill:#abaaaa;fill-opacity:1;fill-rule:nonzero;stroke:none"
             id="path3113" /></g><g
           id="g3115"
           transform="matrix(0.68826843,-0.12761882,0.12761882,0.68826843,264.31359,384.90479)"><path
             inkscape:connector-curvature="0"
             d="M 0,0 C 0,0 44.549,4.064 45.335,-6.398 46.12,-16.863 46.877,-23.741 39.666,-26.436 34.75,-28.271 0.702,-29.84 -2.831,-21.019 -6.363,-12.196 -1.979,-2.301 0,0 z"
             style="fill:none;stroke:#231f20;stroke-width:3;stroke-linecap:butt;stroke-linejoin:miter;stroke-miterlimit:4;stroke-opacity:1;stroke-dasharray:none"
             id="path3117" /></g><g
           id="g3119"
           transform="matrix(0.68826843,-0.12761882,0.12761882,0.68826843,298.18207,376.68724)"><path
             inkscape:connector-curvature="0"
             d="m 0,0 c 0,0 34.101,4.475 34.565,-1.709 0.464,-6.183 2.279,-14.416 -1.461,-18.763 -3.739,-4.346 -36.916,-3.49 -36.916,-3.49 0,0 5.809,5.458 5.308,12.116 C 0.996,-5.188 0,0 0,0"
             style="fill:#abaaaa;fill-opacity:1;fill-rule:nonzero;stroke:none"
             id="path3121" /></g><g
           id="g3123"
           transform="matrix(0.68826843,-0.12761882,0.12761882,0.68826843,298.18207,376.68724)"><path
             inkscape:connector-curvature="0"
             d="m 0,0 c 0,0 34.101,4.475 34.565,-1.709 0.464,-6.183 2.279,-14.416 -1.461,-18.763 -3.739,-4.346 -36.916,-3.49 -36.916,-3.49 0,0 5.809,5.458 5.308,12.116 C 0.996,-5.188 0,0 0,0 z"
             style="fill:none;stroke:#231f20;stroke-width:3;stroke-linecap:butt;stroke-linejoin:miter;stroke-miterlimit:4;stroke-opacity:1;stroke-dasharray:none"
             id="path3125" /></g><g
           id="g3127"
           transform="matrix(0.68826843,-0.12761882,0.12761882,0.68826843,259.05189,387.66025)"><path
             inkscape:connector-curvature="0"
             d="m 0,0 c -0.002,0 -33.98,5.312 -34.597,-0.857 -0.616,-6.17 -2.632,-14.358 0.999,-18.793 3.631,-4.439 36.194,-6.468 36.194,-6.468 0,0 -5.115,8.14 -4.452,14.784 C -1.193,-4.689 0,0 0,0"
             style="fill:#abaaaa;fill-opacity:1;fill-rule:nonzero;stroke:none"
             id="path3129" /></g><g
           id="g3131"
           transform="matrix(0.68826843,-0.12761882,0.12761882,0.68826843,259.05189,387.66025)"><path
             inkscape:connector-curvature="0"
             d="m 0,0 c -0.002,0 -33.98,5.312 -34.597,-0.857 -0.616,-6.17 -2.632,-14.358 0.999,-18.793 3.631,-4.439 36.194,-6.468 36.194,-6.468 0,0 -5.115,8.14 -4.452,14.784 C -1.193,-4.689 0,0 0,0 z"
             style="fill:none;stroke:#231f20;stroke-width:3;stroke-linecap:butt;stroke-linejoin:miter;stroke-miterlimit:4;stroke-opacity:1;stroke-dasharray:none"
             id="path3133" /></g><g
           id="g3135"
           transform="matrix(0.68826843,-0.12761882,0.12761882,0.68826843,262.59413,359.36399)"><path
             inkscape:connector-curvature="0"
             d="m 0,0 c 0,0 32.727,2.937 33.252,-4.056 0.526,-6.991 1.048,-11.585 -4.26,-13.423 -3.618,-1.252 -28.625,-2.469 -31.175,3.413 C -4.731,-8.187 -1.464,-1.55 0,0"
             style="fill:#abaaaa;fill-opacity:1;fill-rule:nonzero;stroke:none"
             id="path3137" /></g><g
           id="g3139"
           transform="matrix(0.68826843,-0.12761882,0.12761882,0.68826843,262.59413,359.36399)"><path
             inkscape:connector-curvature="0"
             d="m 0,0 c 0,0 32.727,2.937 33.252,-4.056 0.526,-6.991 1.048,-11.585 -4.26,-13.423 -3.618,-1.252 -28.625,-2.469 -31.175,3.413 C -4.731,-8.187 -1.464,-1.55 0,0 z"
             style="fill:none;stroke:#231f20;stroke-width:3;stroke-linecap:butt;stroke-linejoin:miter;stroke-miterlimit:4;stroke-opacity:1;stroke-dasharray:none"
             id="path3141" /></g><g
           id="g3143"
           transform="matrix(0.68826843,-0.12761882,0.12761882,0.68826843,235.04808,366.72413)"><path
             inkscape:connector-curvature="0"
             d="M 0,0 C 0,0 32.729,2.938 33.254,-4.055 33.779,-11.046 34.3,-15.641 28.992,-17.479 25.375,-18.73 0.367,-19.948 -2.183,-14.066 -4.731,-8.187 -1.464,-1.549 0,0"
             style="fill:#abaaaa;fill-opacity:1;fill-rule:nonzero;stroke:none"
             id="path3145" /></g><g
           id="g3147"
           transform="matrix(0.68826843,-0.12761882,0.12761882,0.68826843,235.04808,366.72413)"><path
             inkscape:connector-curvature="0"
             d="M 0,0 C 0,0 32.729,2.938 33.254,-4.055 33.779,-11.046 34.3,-15.641 28.992,-17.479 25.375,-18.73 0.367,-19.948 -2.183,-14.066 -4.731,-8.187 -1.464,-1.549 0,0 z"
             style="fill:none;stroke:#231f20;stroke-width:3;stroke-linecap:butt;stroke-linejoin:miter;stroke-miterlimit:4;stroke-opacity:1;stroke-dasharray:none"
             id="path3149" /></g><g
           id="g3151"
           transform="matrix(0.68826843,-0.12761882,0.12761882,0.68826843,258.75758,345.53843)"><path
             inkscape:connector-curvature="0"
             d="M 0,0 C 0,0 32.728,2.938 33.253,-4.054 33.779,-11.046 34.3,-15.641 28.992,-17.479 25.374,-18.73 0.367,-19.947 -2.183,-14.066 -4.731,-8.186 -1.464,-1.548 0,0"
             style="fill:#abaaaa;fill-opacity:1;fill-rule:nonzero;stroke:none"
             id="path3153" /></g><g
           id="g3155"
           transform="matrix(0.68826843,-0.12761882,0.12761882,0.68826843,258.75758,345.53843)"><path
             inkscape:connector-curvature="0"
             d="M 0,0 C 0,0 32.728,2.938 33.253,-4.054 33.779,-11.046 34.3,-15.641 28.992,-17.479 25.374,-18.73 0.367,-19.947 -2.183,-14.066 -4.731,-8.186 -1.464,-1.548 0,0 z"
             style="fill:none;stroke:#231f20;stroke-width:3;stroke-linecap:butt;stroke-linejoin:miter;stroke-miterlimit:4;stroke-opacity:1;stroke-dasharray:none"
             id="path3157" /></g><g
           id="g3159"
           transform="matrix(0.68826843,-0.12761882,0.12761882,0.68826843,231.21168,352.89934)"><path
             inkscape:connector-curvature="0"
             d="M 0,0 C 0,0 32.729,2.938 33.254,-4.055 33.779,-11.047 34.3,-15.641 28.992,-17.479 25.374,-18.73 0.367,-19.947 -2.183,-14.066 -4.731,-8.186 -1.464,-1.549 0,0"
             style="fill:#abaaaa;fill-opacity:1;fill-rule:nonzero;stroke:none"
             id="path3161" /></g><g
           id="g3163"
           transform="matrix(0.68826843,-0.12761882,0.12761882,0.68826843,231.21168,352.89934)"><path
             inkscape:connector-curvature="0"
             d="M 0,0 C 0,0 32.729,2.938 33.254,-4.055 33.779,-11.047 34.3,-15.641 28.992,-17.479 25.374,-18.73 0.367,-19.947 -2.183,-14.066 -4.731,-8.186 -1.464,-1.549 0,0 z"
             style="fill:none;stroke:#231f20;stroke-width:3;stroke-linecap:butt;stroke-linejoin:miter;stroke-miterlimit:4;stroke-opacity:1;stroke-dasharray:none"
             id="path3165" /></g><g
           id="g3167"
           transform="matrix(0.68826843,-0.12761882,0.12761882,0.68826843,254.55714,331.92501)"><path
             inkscape:connector-curvature="0"
             d="M 0,0 C 0,0 32.729,2.938 33.253,-4.055 33.779,-11.047 34.3,-15.641 28.992,-17.479 25.374,-18.73 0.367,-19.948 -2.183,-14.066 -4.731,-8.186 -1.464,-1.55 0,0"
             style="fill:#abaaaa;fill-opacity:1;fill-rule:nonzero;stroke:none"
             id="path3169" /></g><g
           id="g3171"
           transform="matrix(0.68826843,-0.12761882,0.12761882,0.68826843,254.55714,331.92501)"><path
             inkscape:connector-curvature="0"
             d="M 0,0 C 0,0 32.729,2.938 33.253,-4.055 33.779,-11.047 34.3,-15.641 28.992,-17.479 25.374,-18.73 0.367,-19.948 -2.183,-14.066 -4.731,-8.186 -1.464,-1.55 0,0 z"
             style="fill:none;stroke:#231f20;stroke-width:3;stroke-linecap:butt;stroke-linejoin:miter;stroke-miterlimit:4;stroke-opacity:1;stroke-dasharray:none"
             id="path3173" /></g><g
           id="g3175"
           transform="matrix(0.68826843,-0.12761882,0.12761882,0.68826843,227.01111,339.28522)"><path
             inkscape:connector-curvature="0"
             d="m 0,0 c 0,0 32.729,2.938 33.254,-4.054 0.525,-6.992 1.047,-11.587 -4.261,-13.425 C 25.375,-18.73 0.368,-19.948 -2.183,-14.066 -4.731,-8.186 -1.464,-1.549 0,0"
             style="fill:#abaaaa;fill-opacity:1;fill-rule:nonzero;stroke:none"
             id="path3177" /></g><path
           id="path3623"
           style="fill:#554400;stroke:#000000;stroke-width:1.90400004;stroke-linecap:butt;stroke-linejoin:miter;stroke-miterlimit:4;stroke-opacity:1;stroke-dasharray:none"
           d="m 376.36329,292.73392 c 0,0 12.51065,11.31915 15.48937,10.7234 2.97873,-0.59575 42.29787,-20.25532 44.68085,-29.78724 2.38297,-9.5319 2.97871,-19.06382 2.97871,-19.06382 l -9.76009,-7.17804 -17.04841,-0.56667 c -9.51744,0 -15.19695,3.45368 -28.59575,9.53195 -5.01368,2.27441 -16.49223,7.87547 -16.71178,11.35478 -0.45385,7.19281 4.20115,15.45372 4.20115,15.45372 l 0.59574,0.59575 m -173.77997,109.98001 -19.29122,-24.24048 5.7612,-2.6318 9.09457,10.43742 201.94717,-105.62853 21.36291,-6.99528 -17.643,15.46612 -12.1867,6.2988 -188.49226,97.42385 8.24007,10.71724 -6.61573,2.91162 z"
           inkscape:connector-curvature="0" /><g
           id="g3179"
           transform="matrix(0.68826843,-0.12761882,0.12761882,0.68826843,227.01111,339.28522)"><path
             inkscape:connector-curvature="0"
             d="m 0,0 c 0,0 32.729,2.938 33.254,-4.054 0.525,-6.992 1.047,-11.587 -4.261,-13.425 C 25.375,-18.73 0.368,-19.948 -2.183,-14.066 -4.731,-8.186 -1.464,-1.549 0,0 z"
             style="fill:none;stroke:#231f20;stroke-width:3;stroke-linecap:butt;stroke-linejoin:miter;stroke-miterlimit:4;stroke-opacity:1;stroke-dasharray:none"
             id="path3181" /></g><g
           id="g3183"
           transform="matrix(0.68826843,-0.12761882,0.12761882,0.68826843,289.0338,353.19132)"><path
             inkscape:connector-curvature="0"
             d="M 0,0 C 0,0 32.729,2.938 33.254,-4.054 33.778,-11.046 34.3,-15.641 28.992,-17.479 25.374,-18.73 0.366,-19.948 -2.183,-14.066 -4.731,-8.186 -1.465,-1.549 0,0"
             style="fill:#abaaaa;fill-opacity:1;fill-rule:nonzero;stroke:none"
             id="path3185" /></g><g
           id="g3187"
           transform="matrix(0.68826843,-0.12761882,0.12761882,0.68826843,289.0338,353.19132)"><path
             inkscape:connector-curvature="0"
             d="M 0,0 C 0,0 32.729,2.938 33.254,-4.054 33.778,-11.046 34.3,-15.641 28.992,-17.479 25.374,-18.73 0.366,-19.948 -2.183,-14.066 -4.731,-8.186 -1.465,-1.549 0,0 z"
             style="fill:none;stroke:#231f20;stroke-width:3;stroke-linecap:butt;stroke-linejoin:miter;stroke-miterlimit:4;stroke-opacity:1;stroke-dasharray:none"
             id="path3189" /></g><g
           id="g3191"
           transform="matrix(0.68826843,-0.12761882,0.12761882,0.68826843,285.19725,339.36576)"><path
             inkscape:connector-curvature="0"
             d="m 0,0 c 0,0 32.728,2.938 33.253,-4.054 0.525,-6.992 1.048,-11.585 -4.261,-13.424 C 25.374,-18.73 0.367,-19.946 -2.184,-14.064 -4.731,-8.185 -1.464,-1.548 0,0"
             style="fill:#abaaaa;fill-opacity:1;fill-rule:nonzero;stroke:none"
             id="path3193" /></g><g
           id="g3195"
           transform="matrix(0.68826843,-0.12761882,0.12761882,0.68826843,285.19725,339.36576)"><path
             inkscape:connector-curvature="0"
             d="m 0,0 c 0,0 32.728,2.938 33.253,-4.054 0.525,-6.992 1.048,-11.585 -4.261,-13.424 C 25.374,-18.73 0.367,-19.946 -2.184,-14.064 -4.731,-8.185 -1.464,-1.548 0,0 z"
             style="fill:none;stroke:#231f20;stroke-width:3;stroke-linecap:butt;stroke-linejoin:miter;stroke-miterlimit:4;stroke-opacity:1;stroke-dasharray:none"
             id="path3197" /></g><g
           id="g3199"
           transform="matrix(0.68826843,-0.12761882,0.12761882,0.68826843,280.99682,325.75234)"><path
             inkscape:connector-curvature="0"
             d="m 0,0 c 0,0 32.729,2.938 33.254,-4.054 0.525,-6.992 1.047,-11.587 -4.262,-13.425 C 25.374,-18.73 0.368,-19.947 -2.183,-14.066 -4.731,-8.186 -1.465,-1.548 0,0"
             style="fill:#abaaaa;fill-opacity:1;fill-rule:nonzero;stroke:none"
             id="path3201" /></g><g
           id="g3203"
           transform="matrix(0.68826843,-0.12761882,0.12761882,0.68826843,280.99682,325.75234)"><path
             inkscape:connector-curvature="0"
             d="m 0,0 c 0,0 32.729,2.938 33.254,-4.054 0.525,-6.992 1.047,-11.587 -4.262,-13.425 C 25.374,-18.73 0.368,-19.947 -2.183,-14.066 -4.731,-8.186 -1.465,-1.548 0,0 z"
             style="fill:none;stroke:#231f20;stroke-width:3;stroke-linecap:butt;stroke-linejoin:miter;stroke-miterlimit:4;stroke-opacity:1;stroke-dasharray:none"
             id="path3205" /></g><g
           id="g3207"
           transform="matrix(0.68826843,-0.12761882,0.12761882,0.68826843,259.56078,313.44507)"><path
             inkscape:connector-curvature="0"
             d="M 0,0 C -2.763,-4.442 -2.756,-10.726 -0.867,-13.936"
             style="fill:none;stroke:#231f20;stroke-width:3;stroke-linecap:butt;stroke-linejoin:miter;stroke-miterlimit:4;stroke-opacity:1;stroke-dasharray:none"
             id="path3209" /></g><g
           id="g3227"
           transform="matrix(0.68826843,-0.12761882,0.12761882,0.68826843,286.18426,452.31136)"><path
             d="m 0,0 c 0.295,-3.932 -1.985,-7.309 -5.093,-7.542 -9.637,-0.725 -7.819,28.692 -6.163,6.696 -0.296,3.931 1.985,7.307 5.093,7.541 C -3.054,6.929 -0.295,3.931 0,0"
             style="fill:#ffffff;fill-opacity:1;fill-rule:nonzero;stroke:none"
             id="path3229"
             inkscape:connector-curvature="0" /></g><g
           id="g3231"
           transform="matrix(0.68826843,-0.12761882,0.12761882,0.68826843,286.18426,452.31136)"><path
             d="m 0,0 c 0.295,-3.932 -1.985,-7.309 -5.093,-7.542 -9.637,-0.725 -7.819,28.692 -6.163,6.696 -0.296,3.931 1.985,7.307 5.093,7.541 C -3.054,6.929 -0.295,3.931 0,0 z"
             style="fill:none;stroke:#231f20;stroke-width:1;stroke-linecap:butt;stroke-linejoin:miter;stroke-miterlimit:4;stroke-opacity:1;stroke-dasharray:none"
             id="path3233"
             inkscape:connector-curvature="0" /></g><g
           id="g3235"
           transform="matrix(0.68826843,-0.12761882,0.12761882,0.68826843,327.77367,444.00758)"><path
             d="m 0,0 c 0.296,-3.932 -1.985,-7.308 -5.094,-7.542 -3.108,-0.233 -5.867,2.764 -6.163,6.696 -0.295,3.931 1.986,7.308 5.094,7.541 C -3.055,6.929 -0.295,3.931 0,0"
             style="fill:#ffffff;fill-opacity:1;fill-rule:nonzero;stroke:none"
             id="path3237"
             inkscape:connector-curvature="0" /></g><g
           id="g3239"
           transform="matrix(0.68826843,-0.12761882,0.12761882,0.68826843,327.77367,444.00758)"><path
             d="m 0,0 c 0.296,-3.932 -1.985,-7.308 -5.094,-7.542 -3.108,-0.233 -5.867,2.764 -6.163,6.696 -0.295,3.931 1.986,7.308 5.094,7.541 C -3.055,6.929 -0.295,3.931 0,0 z"
             style="fill:none;stroke:#231f20;stroke-width:1;stroke-linecap:butt;stroke-linejoin:miter;stroke-miterlimit:4;stroke-opacity:1;stroke-dasharray:none"
             id="path3241"
             inkscape:connector-curvature="0" /></g><g
           id="g3243"
           transform="matrix(0.15989896,0.68149274,-0.68149274,0.15989896,226.28007,388.0599)"><path
             d="M 0,0 7.03,-8.476 -7.974,-13.7 c 0,0 -0.562,-6.421 -3.277,-10.84 -2.716,-4.421 -5.019,-10.652 -22.713,-10.269 -17.696,0.383 -20.761,13.296 -20.761,13.296 0,0 -9.233,24.619 7.716,37.887 16.948,13.268 28.886,1.93 30.225,-3.679 0.947,-3.964 8.729,8.396 12.653,14.781 3.922,6.385 -3.191,-19.19 -2.056,-17.341"
             style="fill:#ffffff;fill-opacity:1;fill-rule:nonzero;stroke:#231f20;stroke-width:6;stroke-linecap:butt;stroke-linejoin:miter;stroke-miterlimit:4;stroke-opacity:1;stroke-dasharray:none"
             id="path3245"
             inkscape:connector-curvature="0" /></g><g
           id="g3247"
           transform="matrix(0.15989896,0.68149274,-0.68149274,0.15989896,217.46557,410.26386)"><path
             d="m 0,0 28.119073,7.4481418 c 0,0 -26.6252334,10.7020242 -36.0412334,3.7050242 C -17.33816,4.1561663 -33.377,-9.303 -33.377,-9.303 c 1.089,-3.699 2.084,-10.552 5.796,-9.894 C -8.747,-15.858 0,0 0,0"
             style="fill:#949594;fill-opacity:1;fill-rule:nonzero;stroke:none"
             id="path3249"
             inkscape:connector-curvature="0"
             sodipodi:nodetypes="ccsccc" /></g><g
           id="g3251"
           transform="matrix(0.15989896,0.68149274,-0.68149274,0.15989896,217.46557,410.26386)"><path
             d="M 11.736261,0.55346683 35.931511,7.007748 c 0,0 -37.5281363,18.271298 -49.842511,-0.624748 -6.404997,-9.8282795 -19.466,-15.686 -19.466,-15.686 1.089,-3.699 2.084,-10.552 5.796,-9.894 22.3901862,15.9609708 39.317261,19.75046683 39.317261,19.75046683 z"
             style="fill:none;stroke:#231f20;stroke-width:6;stroke-linecap:butt;stroke-linejoin:miter;stroke-miterlimit:4;stroke-opacity:1;stroke-dasharray:none"
             id="path3253"
             inkscape:connector-curvature="0"
             sodipodi:nodetypes="ccsccc" /></g><g
           id="g3255"
           transform="matrix(0.7,0,0,0.7,292.69155,275.3074)"><path
             inkscape:connector-curvature="0"
             d="m 0,0 c -3.501,1.26 -5.061,3.114 -6.402,5.961 -1.342,2.849 0.463,7.604 2.724,13.888 l 2.261,6.283 -11.424,-1.106 c 0,0 -0.217,-8.221 -2.503,-14.576 -2.288,-6.355 3.304,-12.201 3.304,-12.201 L 0,0 z"
             style="fill:#abaaaa;fill-opacity:1;fill-rule:nonzero;stroke:none"
             id="path3257" /></g><g
           id="g3259"
           transform="matrix(0.6954828,0.07939567,-0.07939567,0.6954828,293.62352,275.99343)"><path
             inkscape:connector-curvature="0"
             d="m 0,0 c -3.501,1.26 -5.061,3.114 -6.402,5.961 -1.342,2.849 0.463,7.604 2.724,13.888 l 6.0062106,1.572493 -17.7059256,3.894096 c 0,0 2.319715,-8.510589 0.03372,-14.865589 -2.288,-6.355 3.304,-12.201 3.304,-12.201 z"
             style="fill:none;stroke:#231f20;stroke-width:6;stroke-linecap:butt;stroke-linejoin:miter;stroke-miterlimit:4;stroke-opacity:1;stroke-dasharray:none"
             id="path3261"
             sodipodi:nodetypes="cccccccc" /></g><g
           id="g3263"
           transform="matrix(0.7,0,0,0.7,238.3562,291.68657)"><path
             inkscape:connector-curvature="0"
             d="m 0,0 c -8.362,-0.787 -22.069,-17.928 -41.221,-7.909 -5.41,2.829 -21.536,10.093 -34.068,-3.533 -22.46,-24.427 9.132,-39.673 9.132,-39.673 4.575,-5.003 61.864,-3.277 72.615,16.717 C 14.73,-19.017 15.956,1.503 0,0"
             style="fill:#fff205;fill-opacity:1;fill-rule:nonzero;stroke:none"
             id="path3265" /></g><g
           id="g3267"
           transform="matrix(0.7,0,0,0.7,238.3562,291.68657)"><path
             inkscape:connector-curvature="0"
             d="m 0,0 c -8.362,-0.787 -22.069,-17.928 -41.221,-7.909 -5.41,2.829 -21.536,10.093 -34.068,-3.533 -22.46,-24.427 9.132,-39.673 9.132,-39.673 4.575,-5.003 61.864,-3.277 72.615,16.717 C 14.73,-19.017 15.956,1.503 0,0 z"
             style="fill:none;stroke:#231f20;stroke-width:6;stroke-linecap:butt;stroke-linejoin:miter;stroke-miterlimit:4;stroke-opacity:1;stroke-dasharray:none"
             id="path3269" /></g><g
           id="g3271"
           transform="matrix(0.7,0,0,0.7,211.19669,286.63067)"><path
             inkscape:connector-curvature="0"
             d="M 0,0 C 0,0 11.874,-7.849 13.733,-17.391"
             style="fill:#fff205;fill-opacity:1;fill-rule:nonzero;stroke:#231f20;stroke-width:3;stroke-linecap:butt;stroke-linejoin:miter;stroke-miterlimit:4;stroke-opacity:1;stroke-dasharray:none"
             id="path3273" /></g><g
           id="g3275"
           transform="matrix(0.7,0,0,0.7,311.84041,280.94976)"><path
             inkscape:connector-curvature="0"
             d="M 0,0 C 0,0 -23.241,-7.064 -23.241,-20.929"
             style="fill:#fff205;fill-opacity:1;fill-rule:nonzero;stroke:#231f20;stroke-width:3;stroke-linecap:butt;stroke-linejoin:miter;stroke-miterlimit:4;stroke-opacity:1;stroke-dasharray:none"
             id="path3277" /></g><g
           id="g3307"
           transform="matrix(0.58235085,-0.38841664,0.38841664,0.58235085,360.96068,330.30573)"
           inkscape:transform-center-x="-10.21616"
           inkscape:transform-center-y="-15.093008"><path
             d="m 0,0 9.022,6.313 3.979,-15.381 c 0,0 6.354,-1.086 10.536,-4.154 4.186,-3.068 10.207,-5.872 8.377,-23.476 -1.828,-17.605 -14.948,-19.605 -14.948,-19.605 0,0 -25.291,-7.187 -37.128,10.789 -0.625,0.949 -1.183,1.876 -1.677,2.785 -0.479,0.883 -0.901,1.748 -1.267,2.591 -6.414,14.774 3.974,23.664 9.081,24.448 4.029,0.619 -7.654,9.385 -13.697,13.817 -6.044,4.433 18.865,-4.748 17.117,-3.465"
             style="fill:#ffffff;fill-opacity:1;fill-rule:nonzero;stroke:#231f20;stroke-width:6;stroke-linecap:butt;stroke-linejoin:miter;stroke-miterlimit:4;stroke-opacity:1;stroke-dasharray:none"
             id="path3309"
             inkscape:connector-curvature="0" /></g><g
           id="g3327"
           transform="matrix(0.58235085,-0.38841664,0.38841664,0.58235085,353.95545,371.74237)"
           inkscape:transform-center-x="7.2894725"
           inkscape:transform-center-y="19.826352"><path
             d="M -7.8783861,7.8206898e-5 -2.521,-22.349 c 0,0 12.731,-0.376 20.449,-9.212 7.718,-8.835 11.172,-16.391 11.172,-16.391 3.603,1.378 14.327,5.836 14.327,5.836 C 41.376,-24.433 -9.3272685,1.6301035 -9.3272685,1.6301035"
             style="fill:#949594;fill-opacity:1;fill-rule:nonzero;stroke:none"
             id="path3329"
             inkscape:connector-curvature="0"
             sodipodi:nodetypes="cccccc" /></g><g
           id="g3331"
           transform="matrix(0.58235085,-0.38841664,0.38841664,0.58235085,353.95545,371.74237)"
           inkscape:transform-center-x="7.6824714"
           inkscape:transform-center-y="19.558869"><path
             d="M -11.185019,4.2934867 -2.521,-22.349 c 0,0 12.731,-0.376 20.449,-9.212 7.718,-8.835 11.172,-16.391 11.172,-16.391 3.603,1.378 14.327,5.836 14.327,5.836 -2.051,17.683 -54.612019,46.4094867 -54.612019,46.4094867 z"
             style="fill:none;stroke:#231f20;stroke-width:6;stroke-linecap:butt;stroke-linejoin:miter;stroke-miterlimit:4;stroke-opacity:1;stroke-dasharray:none"
             id="path3333"
             inkscape:connector-curvature="0"
             sodipodi:nodetypes="cccccc" /></g><path
           sodipodi:type="arc"
           style="fill:none;stroke:#000000;stroke-width:3.4000001;stroke-miterlimit:4;stroke-opacity:1;stroke-dasharray:none"
           id="path3896"
           sodipodi:cx="389.0946"
           sodipodi:cy="535.39459"
           sodipodi:rx="359.31696"
           sodipodi:ry="359.31696"
           d="m 748.41156,535.39459 a 359.31696,359.31696 0 1 1 -718.633911,0 359.31696,359.31696 0 1 1 718.633911,0 z"
           transform="matrix(0.66315835,0,0,-0.66315835,44.509572,740.17563)" /></g></g></g></svg>